<svg xmlns="http://www.w3.org/2000/svg" xmlns:xlink="http://www.w3.org/1999/xlink" width="1920" zoomAndPan="magnify" viewBox="0 0 1440 809.999993" height="1080" preserveAspectRatio="xMidYMid meet" version="1.0"><rect x="-144" width="1728" fill="#ffffff" y="-80.999999" height="971.999992" fill-opacity="1"/><rect x="-144" width="1728" fill="#ab88c6" y="-80.999999" height="971.999992" fill-opacity="1"/><path fill="#fdfdfd" d="M 150.464844 317.941406 C 150.46875 314.71875 150.550781 311.5 150.710938 308.28125 C 150.871094 305.066406 151.113281 301.855469 151.429688 298.648438 C 151.75 295.441406 152.144531 292.246094 152.621094 289.058594 C 153.097656 285.871094 153.648438 282.699219 154.28125 279.539062 C 154.910156 276.378906 155.621094 273.238281 156.402344 270.113281 C 157.1875 266.988281 158.050781 263.886719 158.988281 260.804688 C 159.925781 257.722656 160.9375 254.664062 162.023438 251.628906 C 163.109375 248.597656 164.269531 245.59375 165.503906 242.617188 C 166.738281 239.640625 168.046875 236.699219 169.425781 233.785156 C 170.804688 230.875 172.253906 227.996094 173.773438 225.15625 C 175.292969 222.316406 176.878906 219.515625 178.539062 216.75 C 180.195312 213.988281 181.917969 211.265625 183.710938 208.589844 C 185.5 205.910156 187.355469 203.277344 189.273438 200.691406 C 191.195312 198.101562 193.175781 195.5625 195.21875 193.074219 C 197.261719 190.582031 199.367188 188.144531 201.53125 185.757812 C 203.695312 183.371094 205.914062 181.035156 208.191406 178.757812 C 210.472656 176.480469 212.804688 174.257812 215.191406 172.09375 C 217.578125 169.929688 220.015625 167.828125 222.503906 165.78125 C 224.996094 163.738281 227.535156 161.757812 230.121094 159.835938 C 232.707031 157.917969 235.339844 156.0625 238.019531 154.269531 C 240.699219 152.480469 243.417969 150.753906 246.179688 149.097656 C 248.945312 147.441406 251.746094 145.851562 254.585938 144.332031 C 257.425781 142.8125 260.300781 141.363281 263.214844 139.980469 C 266.125 138.601562 269.070312 137.296875 272.046875 136.0625 C 275.019531 134.828125 278.023438 133.664062 281.058594 132.578125 C 284.089844 131.492188 287.148438 130.476562 290.230469 129.539062 C 293.3125 128.601562 296.417969 127.742188 299.539062 126.957031 C 302.664062 126.171875 305.808594 125.460938 308.964844 124.832031 C 312.125 124.199219 315.296875 123.644531 318.484375 123.167969 C 321.671875 122.695312 324.867188 122.296875 328.074219 121.976562 C 331.28125 121.660156 334.492188 121.417969 337.707031 121.257812 C 340.925781 121.09375 344.144531 121.011719 347.367188 121.007812 C 607.628906 130.210938 608.140625 504.84375 348.035156 514.84375 C 344.808594 514.851562 341.578125 514.78125 338.355469 514.628906 C 335.128906 514.476562 331.910156 514.246094 328.695312 513.9375 C 325.484375 513.628906 322.277344 513.242188 319.085938 512.773438 C 315.890625 512.308594 312.707031 511.765625 309.539062 511.140625 C 306.371094 510.519531 303.222656 509.820312 300.089844 509.039062 C 296.953125 508.261719 293.84375 507.410156 290.75 506.476562 C 287.660156 505.546875 284.59375 504.542969 281.550781 503.460938 C 278.507812 502.378906 275.496094 501.222656 272.507812 499.996094 C 269.523438 498.765625 266.570312 497.464844 263.648438 496.089844 C 260.726562 494.714844 257.84375 493.269531 254.992188 491.753906 C 252.140625 490.234375 249.332031 488.648438 246.558594 486.996094 C 243.785156 485.339844 241.054688 483.621094 238.367188 481.832031 C 235.679688 480.042969 233.039062 478.1875 230.441406 476.269531 C 227.84375 474.351562 225.296875 472.371094 222.796875 470.328125 C 220.296875 468.285156 217.851562 466.179688 215.453125 464.015625 C 213.058594 461.851562 210.71875 459.628906 208.429688 457.351562 C 206.144531 455.070312 203.914062 452.738281 201.742188 450.351562 C 199.570312 447.960938 197.457031 445.519531 195.40625 443.027344 C 193.351562 440.535156 191.363281 437.996094 189.4375 435.40625 C 187.507812 432.8125 185.644531 430.179688 183.847656 427.496094 C 182.050781 424.816406 180.320312 422.089844 178.65625 419.324219 C 176.992188 416.558594 175.398438 413.75 173.871094 410.90625 C 172.34375 408.0625 170.890625 405.179688 169.503906 402.261719 C 168.121094 399.347656 166.808594 396.398438 165.570312 393.417969 C 164.328125 390.4375 163.164062 387.425781 162.074219 384.386719 C 160.980469 381.347656 159.964844 378.285156 159.023438 375.199219 C 158.082031 372.109375 157.21875 369 156.429688 365.867188 C 155.640625 362.738281 154.929688 359.589844 154.296875 356.425781 C 153.664062 353.257812 153.105469 350.078125 152.628906 346.886719 C 152.152344 343.691406 151.753906 340.488281 151.433594 337.277344 C 151.113281 334.066406 150.875 330.847656 150.710938 327.621094 C 150.550781 324.398438 150.46875 321.171875 150.464844 317.941406 Z M 546.664062 514.933594 C 545.363281 514.136719 544.007812 513.433594 542.601562 512.828125 C 541.195312 512.222656 539.753906 511.722656 538.277344 511.324219 C 536.800781 510.929688 535.300781 510.636719 533.78125 510.457031 C 532.261719 510.273438 530.738281 510.203125 529.207031 510.242188 C 527.679688 510.277344 526.160156 510.425781 524.652344 510.683594 C 523.144531 510.9375 521.660156 511.300781 520.203125 511.769531 C 518.75 512.242188 517.332031 512.8125 515.960938 513.484375 C 514.585938 514.160156 513.269531 514.929688 512.003906 515.792969 C 509.074219 518.171875 506.09375 520.488281 503.0625 522.738281 C 500.03125 524.992188 496.953125 527.175781 493.828125 529.296875 C 490.703125 531.414062 487.53125 533.464844 484.320312 535.449219 C 481.105469 537.433594 477.851562 539.34375 474.554688 541.1875 C 471.261719 543.03125 467.925781 544.800781 464.554688 546.5 C 461.183594 548.199219 457.773438 549.824219 454.332031 551.375 C 450.890625 552.929688 447.417969 554.40625 443.910156 555.808594 C 440.40625 557.210938 436.871094 558.539062 433.308594 559.789062 C 429.746094 561.039062 426.15625 562.210938 422.542969 563.308594 C 418.929688 564.402344 415.296875 565.421875 411.636719 566.359375 C 407.980469 567.300781 404.304688 568.160156 400.609375 568.941406 C 396.917969 569.722656 393.207031 570.421875 389.484375 571.042969 C 385.757812 571.664062 382.023438 572.203125 378.273438 572.664062 C 374.527344 573.125 370.769531 573.503906 367.007812 573.804688 C 363.242188 574.101562 359.472656 574.320312 355.699219 574.453125 C 351.925781 574.589844 348.152344 574.644531 344.375 574.617188 C 340.601562 574.59375 336.828125 574.484375 333.054688 574.296875 C 329.285156 574.105469 325.519531 573.835938 321.761719 573.484375 C 318 573.132812 314.25 572.703125 310.507812 572.1875 C 306.769531 571.675781 303.039062 571.082031 299.324219 570.410156 C 295.609375 569.738281 291.910156 568.984375 288.226562 568.152344 C 284.542969 567.316406 280.882812 566.40625 277.238281 565.417969 C 273.59375 564.425781 269.972656 563.355469 266.375 562.210938 C 262.777344 561.0625 259.207031 559.839844 255.660156 558.539062 C 252.117188 557.242188 248.601562 555.863281 245.117188 554.414062 C 241.628906 552.960938 238.175781 551.433594 234.757812 549.835938 C 231.335938 548.234375 227.953125 546.5625 224.605469 544.816406 C 221.257812 543.070312 217.949219 541.25 214.679688 539.363281 C 211.410156 537.472656 208.183594 535.515625 204.996094 533.488281 C 201.8125 531.460938 198.671875 529.363281 195.578125 527.203125 C 192.480469 525.039062 189.433594 522.808594 186.4375 520.515625 C 183.4375 518.222656 180.488281 515.863281 177.589844 513.441406 C 175.40625 512.4375 173.128906 511.710938 170.765625 511.257812 C 168.402344 510.804688 166.019531 510.640625 163.617188 510.765625 C 161.210938 510.894531 158.859375 511.304688 156.554688 512.003906 C 154.253906 512.699219 152.066406 513.664062 150 514.894531 C 143.945312 518.917969 138.023438 523.125 132.234375 527.515625 C 126.441406 531.90625 120.789062 536.46875 115.277344 541.207031 C 109.765625 545.945312 104.40625 550.847656 99.199219 555.917969 C 93.988281 560.984375 88.941406 566.210938 84.054688 571.589844 C 79.167969 576.96875 74.449219 582.492188 69.90625 588.164062 C 65.359375 593.835938 60.988281 599.640625 56.800781 605.578125 C 52.613281 611.515625 48.609375 617.578125 44.792969 623.765625 C 40.980469 629.953125 37.359375 636.25 33.929688 642.65625 C 30.503906 649.066406 27.277344 655.574219 24.25 662.183594 C 21.222656 668.789062 18.402344 675.484375 15.789062 682.265625 C 13.175781 689.046875 10.773438 695.902344 8.582031 702.832031 C 6.390625 709.761719 4.414062 716.753906 2.652344 723.804688 C 0.894531 730.855469 -0.648438 737.953125 -1.972656 745.101562 C -3.296875 752.246094 -4.398438 759.429688 -5.277344 766.640625 C -6.160156 773.855469 -6.816406 781.089844 -7.253906 788.34375 C -7.6875 795.601562 -7.898438 802.863281 -7.886719 810.128906 C -7.886719 811.121094 -7.839844 812.109375 -7.742188 813.09375 C -7.648438 814.082031 -7.5 815.058594 -7.308594 816.03125 C -7.117188 817.003906 -6.875 817.964844 -6.589844 818.914062 C -6.300781 819.863281 -5.96875 820.792969 -5.589844 821.710938 C -5.210938 822.625 -4.785156 823.519531 -4.320312 824.394531 C -3.851562 825.265625 -3.34375 826.117188 -2.792969 826.941406 C -2.242188 827.765625 -1.652344 828.558594 -1.027344 829.324219 C -0.398438 830.089844 0.269531 830.824219 0.96875 831.527344 C 1.667969 832.226562 2.402344 832.890625 3.167969 833.519531 C 3.933594 834.148438 4.730469 834.738281 5.554688 835.289062 C 6.378906 835.839844 7.226562 836.347656 8.101562 836.8125 C 8.976562 837.28125 9.871094 837.703125 10.785156 838.082031 C 11.699219 838.460938 12.632812 838.796875 13.582031 839.082031 C 14.53125 839.371094 15.488281 839.609375 16.460938 839.804688 C 17.433594 839.996094 18.414062 840.140625 19.398438 840.238281 C 20.386719 840.335938 21.375 840.382812 22.363281 840.382812 L 673.375 840.382812 C 674.367188 840.382812 675.355469 840.335938 676.339844 840.238281 C 677.328125 840.140625 678.308594 839.996094 679.277344 839.804688 C 680.25 839.609375 681.210938 839.371094 682.160156 839.082031 C 683.109375 838.796875 684.039062 838.460938 684.957031 838.082031 C 685.871094 837.703125 686.765625 837.28125 687.640625 836.8125 C 688.515625 836.347656 689.363281 835.839844 690.1875 835.289062 C 691.011719 834.738281 691.804688 834.148438 692.574219 833.519531 C 693.339844 832.890625 694.070312 832.226562 694.773438 831.527344 C 695.472656 830.824219 696.136719 830.09375 696.765625 829.324219 C 697.394531 828.558594 697.984375 827.765625 698.535156 826.941406 C 699.085938 826.117188 699.59375 825.269531 700.0625 824.394531 C 700.527344 823.519531 700.949219 822.625 701.328125 821.710938 C 701.707031 820.792969 702.042969 819.863281 702.328125 818.914062 C 702.617188 817.964844 702.855469 817.003906 703.050781 816.03125 C 703.242188 815.0625 703.386719 814.082031 703.484375 813.09375 C 703.582031 812.109375 703.628906 811.121094 703.628906 810.128906 C 703.621094 802.878906 703.394531 795.632812 702.949219 788.394531 C 702.5 781.15625 701.835938 773.9375 700.945312 766.742188 C 700.058594 759.542969 698.953125 752.382812 697.628906 745.25 C 696.300781 738.121094 694.761719 731.039062 693.003906 724.003906 C 691.246094 716.96875 689.277344 709.992188 687.09375 703.078125 C 684.914062 696.160156 682.519531 689.320312 679.921875 682.550781 C 677.320312 675.78125 674.515625 669.09375 671.507812 662.496094 C 668.5 655.898438 665.296875 649.398438 661.890625 642.996094 C 658.484375 636.59375 654.890625 630.296875 651.101562 624.117188 C 647.3125 617.933594 643.339844 611.871094 639.179688 605.929688 C 635.023438 599.988281 630.6875 594.179688 626.171875 588.503906 C 621.660156 582.824219 616.980469 577.292969 612.128906 571.902344 C 607.277344 566.511719 602.265625 561.273438 597.097656 556.1875 C 591.925781 551.101562 586.605469 546.179688 581.136719 541.417969 C 575.664062 536.660156 570.054688 532.070312 564.304688 527.652344 C 558.554688 523.234375 552.675781 518.996094 546.664062 514.933594 Z M 546.664062 514.933594 " fill-opacity="1" fill-rule="nonzero"/></svg>