<svg xmlns="http://www.w3.org/2000/svg" xmlns:xlink="http://www.w3.org/1999/xlink" width="1920" zoomAndPan="magnify" viewBox="0 0 1440 809.999993" height="1080" preserveAspectRatio="xMidYMid meet" version="1.0"><defs><clipPath id="350ac20959"><path d="M 1222 197 L 1359 197 L 1359 316.5 L 1222 316.5 Z M 1222 197 " clip-rule="nonzero"/></clipPath><clipPath id="890491f04b"><path d="M 81 493.363281 L 657 493.363281 L 657 692 L 81 692 Z M 81 493.363281 " clip-rule="nonzero"/></clipPath><clipPath id="75801dfde7"><path d="M 81 609 L 218 609 L 218 728.863281 L 81 728.863281 Z M 81 609 " clip-rule="nonzero"/></clipPath><clipPath id="dc0051aed3"><path d="M 81 282.222656 L 657 282.222656 L 657 478.722656 L 81 478.722656 Z M 81 282.222656 " clip-rule="nonzero"/></clipPath><clipPath id="dc4b83607a"><path d="M 81 532.199219 L 657 532.199219 L 657 728.699219 L 81 728.699219 Z M 81 532.199219 " clip-rule="nonzero"/></clipPath><clipPath id="5356f51fcb"><path d="M 783 119.835938 L 1359 119.835938 L 1359 316.335938 L 783 316.335938 Z M 783 119.835938 " clip-rule="nonzero"/></clipPath></defs><rect x="-144" width="1728" fill="#ffffff" y="-80.999999" height="971.999992" fill-opacity="1"/><rect x="-144" width="1728" fill="#ab88c6" y="-80.999999" height="971.999992" fill-opacity="1"/><path fill="#fdfdfd" d="M 834.105469 81 L 1307.546875 81 C 1309.21875 81 1310.886719 81.082031 1312.550781 81.246094 C 1314.214844 81.410156 1315.863281 81.65625 1317.503906 81.980469 C 1319.144531 82.308594 1320.765625 82.714844 1322.363281 83.199219 C 1323.964844 83.683594 1325.539062 84.246094 1327.082031 84.886719 C 1328.628906 85.527344 1330.136719 86.238281 1331.609375 87.027344 C 1333.085938 87.816406 1334.519531 88.675781 1335.910156 89.605469 C 1337.300781 90.53125 1338.640625 91.527344 1339.933594 92.589844 C 1341.226562 93.648438 1342.460938 94.769531 1343.644531 95.953125 C 1344.828125 97.136719 1345.949219 98.371094 1347.007812 99.664062 C 1348.070312 100.957031 1349.066406 102.300781 1349.992188 103.6875 C 1350.921875 105.078125 1351.78125 106.511719 1352.570312 107.988281 C 1353.359375 109.460938 1354.070312 110.972656 1354.710938 112.515625 C 1355.351562 114.0625 1355.914062 115.632812 1356.398438 117.234375 C 1356.886719 118.832031 1357.289062 120.453125 1357.617188 122.09375 C 1357.941406 123.734375 1358.1875 125.386719 1358.351562 127.050781 C 1358.515625 128.710938 1358.597656 130.382812 1358.597656 132.054688 L 1358.597656 228.050781 C 1358.597656 229.722656 1358.515625 231.390625 1358.351562 233.054688 C 1358.1875 234.71875 1357.941406 236.371094 1357.617188 238.011719 C 1357.289062 239.648438 1356.886719 241.269531 1356.398438 242.871094 C 1355.914062 244.46875 1355.351562 246.042969 1354.710938 247.585938 C 1354.070312 249.132812 1353.359375 250.640625 1352.570312 252.117188 C 1351.78125 253.589844 1350.921875 255.023438 1349.992188 256.414062 C 1349.066406 257.804688 1348.070312 259.144531 1347.007812 260.4375 C 1345.949219 261.730469 1344.828125 262.96875 1343.644531 264.148438 C 1342.460938 265.332031 1341.226562 266.453125 1339.933594 267.515625 C 1338.640625 268.574219 1337.300781 269.570312 1335.910156 270.5 C 1334.519531 271.429688 1333.085938 272.285156 1331.609375 273.074219 C 1330.136719 273.863281 1328.628906 274.578125 1327.082031 275.214844 C 1325.539062 275.855469 1323.964844 276.417969 1322.363281 276.90625 C 1320.765625 277.390625 1319.144531 277.796875 1317.503906 278.121094 C 1315.863281 278.449219 1314.214844 278.691406 1312.550781 278.855469 C 1310.886719 279.019531 1309.21875 279.101562 1307.546875 279.101562 L 834.105469 279.101562 C 832.433594 279.101562 830.765625 279.019531 829.101562 278.855469 C 827.4375 278.691406 825.785156 278.449219 824.144531 278.121094 C 822.503906 277.796875 820.886719 277.390625 819.285156 276.90625 C 817.6875 276.417969 816.113281 275.855469 814.570312 275.214844 C 813.023438 274.578125 811.515625 273.863281 810.039062 273.074219 C 808.566406 272.285156 807.132812 271.429688 805.742188 270.5 C 804.351562 269.570312 803.011719 268.574219 801.71875 267.515625 C 800.425781 266.453125 799.1875 265.332031 798.003906 264.148438 C 796.824219 262.96875 795.703125 261.730469 794.640625 260.4375 C 793.582031 259.144531 792.585938 257.804688 791.65625 256.414062 C 790.726562 255.023438 789.871094 253.589844 789.082031 252.117188 C 788.292969 250.640625 787.578125 249.132812 786.9375 247.585938 C 786.300781 246.042969 785.738281 244.46875 785.25 242.871094 C 784.765625 241.269531 784.359375 239.648438 784.035156 238.011719 C 783.707031 236.371094 783.460938 234.71875 783.296875 233.054688 C 783.132812 231.390625 783.050781 229.722656 783.050781 228.050781 L 783.050781 132.054688 C 783.050781 130.382812 783.132812 128.710938 783.296875 127.050781 C 783.460938 125.386719 783.707031 123.734375 784.035156 122.09375 C 784.359375 120.453125 784.765625 118.832031 785.25 117.234375 C 785.738281 115.632812 786.300781 114.0625 786.9375 112.515625 C 787.578125 110.972656 788.292969 109.460938 789.082031 107.988281 C 789.871094 106.511719 790.726562 105.078125 791.65625 103.691406 C 792.585938 102.300781 793.582031 100.957031 794.640625 99.664062 C 795.703125 98.371094 796.824219 97.136719 798.003906 95.953125 C 799.1875 94.769531 800.425781 93.648438 801.71875 92.589844 C 803.011719 91.527344 804.351562 90.53125 805.742188 89.605469 C 807.132812 88.675781 808.566406 87.816406 810.039062 87.027344 C 811.515625 86.238281 813.023438 85.527344 814.570312 84.886719 C 816.113281 84.246094 817.6875 83.683594 819.285156 83.199219 C 820.886719 82.714844 822.503906 82.308594 824.144531 81.980469 C 825.785156 81.65625 827.4375 81.410156 829.101562 81.246094 C 830.765625 81.082031 832.433594 81 834.105469 81 Z M 834.105469 81 " fill-opacity="1" fill-rule="nonzero"/><g clip-path="url(#350ac20959)"><path fill="#fdfdfd" d="M 1222.175781 203.613281 L 1358.914062 316.628906 L 1358.285156 197.078125 L 1222.152344 197.785156 " fill-opacity="1" fill-rule="nonzero"/></g><g clip-path="url(#890491f04b)"><path fill="#fdfdfd" d="M 605.894531 493.363281 L 132.453125 493.363281 C 130.78125 493.363281 129.113281 493.445312 127.449219 493.609375 C 125.785156 493.773438 124.136719 494.019531 122.496094 494.34375 C 120.855469 494.671875 119.234375 495.078125 117.636719 495.5625 C 116.035156 496.046875 114.460938 496.609375 112.917969 497.25 C 111.371094 497.890625 109.863281 498.605469 108.386719 499.390625 C 106.914062 500.179688 105.480469 501.039062 104.089844 501.96875 C 102.699219 502.898438 101.359375 503.890625 100.066406 504.953125 C 98.773438 506.011719 97.539062 507.132812 96.355469 508.316406 C 95.171875 509.5 94.050781 510.738281 92.992188 512.027344 C 91.929688 513.320312 90.933594 514.664062 90.007812 516.054688 C 89.078125 517.441406 88.21875 518.875 87.429688 520.351562 C 86.640625 521.824219 85.929688 523.335938 85.289062 524.878906 C 84.648438 526.425781 84.085938 527.996094 83.601562 529.597656 C 83.113281 531.195312 82.710938 532.816406 82.382812 534.457031 C 82.054688 536.097656 81.8125 537.75 81.648438 539.414062 C 81.484375 541.078125 81.402344 542.746094 81.402344 544.417969 L 81.402344 640.414062 C 81.402344 642.085938 81.484375 643.753906 81.648438 645.417969 C 81.8125 647.082031 82.054688 648.734375 82.382812 650.375 C 82.710938 652.011719 83.113281 653.632812 83.601562 655.234375 C 84.085938 656.832031 84.648438 658.40625 85.289062 659.949219 C 85.929688 661.496094 86.640625 663.003906 87.429688 664.480469 C 88.21875 665.953125 89.078125 667.386719 90.007812 668.777344 C 90.933594 670.167969 91.929688 671.507812 92.992188 672.800781 C 94.050781 674.09375 95.171875 675.332031 96.355469 676.511719 C 97.539062 677.695312 98.773438 678.816406 100.066406 679.878906 C 101.359375 680.9375 102.699219 681.933594 104.089844 682.863281 C 105.480469 683.792969 106.914062 684.648438 108.386719 685.4375 C 109.863281 686.226562 111.371094 686.941406 112.917969 687.582031 C 114.460938 688.21875 116.035156 688.78125 117.636719 689.269531 C 119.234375 689.753906 120.855469 690.160156 122.496094 690.484375 C 124.136719 690.8125 125.785156 691.058594 127.449219 691.21875 C 129.113281 691.382812 130.78125 691.464844 132.453125 691.464844 L 605.894531 691.464844 C 607.566406 691.464844 609.234375 691.382812 610.898438 691.21875 C 612.5625 691.058594 614.214844 690.8125 615.855469 690.484375 C 617.496094 690.160156 619.113281 689.753906 620.714844 689.269531 C 622.3125 688.78125 623.886719 688.21875 625.429688 687.582031 C 626.976562 686.941406 628.484375 686.226562 629.960938 685.4375 C 631.433594 684.648438 632.867188 683.792969 634.257812 682.863281 C 635.648438 681.933594 636.988281 680.9375 638.28125 679.878906 C 639.574219 678.816406 640.8125 677.695312 641.996094 676.511719 C 643.175781 675.332031 644.296875 674.09375 645.359375 672.800781 C 646.417969 671.507812 647.414062 670.167969 648.34375 668.777344 C 649.273438 667.386719 650.128906 665.953125 650.917969 664.480469 C 651.707031 663.003906 652.421875 661.496094 653.0625 659.949219 C 653.699219 658.40625 654.261719 656.832031 654.75 655.234375 C 655.234375 653.632812 655.640625 652.011719 655.964844 650.375 C 656.292969 648.734375 656.539062 647.082031 656.703125 645.417969 C 656.867188 643.753906 656.945312 642.085938 656.945312 640.414062 L 656.945312 544.417969 C 656.945312 542.746094 656.867188 541.078125 656.703125 539.414062 C 656.539062 537.75 656.292969 536.097656 655.964844 534.457031 C 655.640625 532.816406 655.234375 531.195312 654.75 529.597656 C 654.261719 527.996094 653.699219 526.425781 653.0625 524.878906 C 652.421875 523.335938 651.707031 521.824219 650.917969 520.351562 C 650.128906 518.875 649.273438 517.441406 648.34375 516.054688 C 647.414062 514.664062 646.417969 513.320312 645.359375 512.027344 C 644.296875 510.738281 643.175781 509.5 641.996094 508.316406 C 640.8125 507.132812 639.574219 506.011719 638.28125 504.953125 C 636.988281 503.890625 635.648438 502.898438 634.257812 501.96875 C 632.867188 501.039062 631.433594 500.179688 629.960938 499.390625 C 628.484375 498.605469 626.976562 497.890625 625.429688 497.25 C 623.886719 496.609375 622.3125 496.046875 620.714844 495.5625 C 619.113281 495.078125 617.496094 494.671875 615.855469 494.34375 C 614.214844 494.019531 612.5625 493.773438 610.898438 493.609375 C 609.234375 493.445312 607.566406 493.363281 605.894531 493.363281 Z M 605.894531 493.363281 " fill-opacity="1" fill-rule="nonzero"/></g><g clip-path="url(#75801dfde7)"><path fill="#fdfdfd" d="M 217.824219 615.976562 L 81.085938 728.992188 L 81.714844 609.441406 L 217.847656 610.148438 " fill-opacity="1" fill-rule="nonzero"/></g><g clip-path="url(#dc0051aed3)"><path fill="#fdfdfd" d="M 613.464844 282.257812 L 124.421875 282.257812 C 100.464844 282.257812 81 301.722656 81 325.679688 L 81 396.628906 C 81 397.433594 81 478.980469 81 478.980469 L 81.113281 478.863281 C 106.109375 453.871094 140.085938 439.820312 175.445312 439.820312 C 304.214844 439.933594 613.578125 439.933594 613.578125 439.933594 C 637.535156 439.933594 657 420.46875 657 396.511719 L 657 325.566406 C 656.882812 301.722656 637.417969 282.257812 613.464844 282.257812 Z M 613.464844 282.257812 " fill-opacity="1" fill-rule="nonzero"/></g><g clip-path="url(#dc4b83607a)"><path fill="#fdfdfd" d="M 613.464844 532.234375 L 124.421875 532.234375 C 100.464844 532.234375 81 551.699219 81 575.65625 L 81 646.605469 C 81 647.414062 81 728.957031 81 728.957031 L 81.113281 728.84375 C 106.109375 703.847656 140.085938 689.796875 175.445312 689.796875 C 304.214844 689.914062 613.578125 689.914062 613.578125 689.914062 C 637.535156 689.914062 657 670.449219 657 646.492188 L 657 575.542969 C 656.882812 551.699219 637.417969 532.234375 613.464844 532.234375 Z M 613.464844 532.234375 " fill-opacity="1" fill-rule="nonzero"/></g><g clip-path="url(#5356f51fcb)"><path fill="#fdfdfd" d="M 826.535156 119.871094 L 1315.578125 119.871094 C 1339.535156 119.871094 1359 139.335938 1359 163.292969 L 1359 234.242188 C 1359 235.046875 1359 316.59375 1359 316.59375 L 1358.882812 316.480469 C 1333.890625 291.484375 1299.914062 277.433594 1264.554688 277.433594 C 1135.785156 277.550781 826.421875 277.550781 826.421875 277.550781 C 802.464844 277.550781 783 258.085938 783 234.128906 L 783 163.179688 C 783.113281 139.335938 802.582031 119.871094 826.535156 119.871094 Z M 826.535156 119.871094 " fill-opacity="1" fill-rule="nonzero"/></g></svg>