<svg xmlns="http://www.w3.org/2000/svg" xmlns:xlink="http://www.w3.org/1999/xlink" width="500" zoomAndPan="magnify" viewBox="0 0 375 374.999991" height="500" preserveAspectRatio="xMidYMid meet" version="1.0"><path fill="#ffffff" d="M 276.796875 364.0625 C 273.203125 370.101562 267.816406 373.203125 260.632812 373.367188 C 228.636719 374.511719 204.148438 375 164.800781 374.835938 C 149.78125 374.835938 134.925781 374.347656 119.90625 373.855469 C 114.027344 373.695312 109.132812 372.386719 105.214844 367.980469 C 103.582031 365.859375 102.601562 363.898438 102.113281 362.101562 C 93.949219 329.125 85.949219 296.148438 77.785156 263.167969 C 77.625 262.351562 77.132812 261.863281 76.644531 261.699219 C 70.441406 258.925781 65.050781 255.167969 60.644531 250.273438 C 43.503906 231.660156 50.6875 205.539062 67.5 189.703125 C 67.664062 189.539062 67.828125 189.214844 67.664062 188.886719 C 57.378906 171.910156 69.132812 154.441406 85.785156 148.726562 C 86.113281 148.5625 86.277344 148.398438 86.113281 148.074219 C 82.683594 140.890625 83.5 132.074219 87.417969 125.21875 C 94.765625 112.15625 108.804688 106.769531 122.683594 104.320312 C 123.007812 104.320312 123.171875 103.996094 123.007812 103.832031 C 120.722656 84.242188 138.84375 70.363281 154.515625 63.34375 C 164.476562 58.933594 171.820312 54.691406 172.148438 42.609375 C 172.3125 38.527344 172.476562 35.261719 172.964844 32.652344 C 174.433594 23.835938 178.351562 16.652344 184.71875 10.9375 C 187.984375 8 199.738281 0 203.332031 5.714844 C 203.820312 6.53125 203.984375 7.671875 203.984375 9.304688 C 203.820312 19.917969 205.453125 29.550781 210.839844 38.691406 C 221.453125 56.648438 237.777344 70.527344 241.371094 92.078125 C 241.371094 92.238281 241.53125 92.402344 241.695312 92.566406 C 246.921875 94.363281 251.164062 95.667969 256.878906 98.769531 C 267.816406 104.8125 276.46875 114.441406 279.40625 126.851562 C 279.40625 127.011719 279.570312 127.175781 279.734375 127.175781 C 289.039062 129.136719 296.875 133.378906 303.570312 139.585938 C 317.285156 152.644531 316.792969 172.398438 306.507812 187.253906 C 306.34375 187.417969 306.34375 187.746094 306.671875 187.90625 C 314.671875 192.480469 323.488281 199.824219 327.40625 207.988281 C 331.488281 216.476562 330.832031 226.4375 325.609375 234.4375 C 321.203125 241.128906 315.160156 245.375 307.976562 248.640625 C 307.488281 248.804688 307.160156 249.292969 307 249.78125 C 297.691406 286.1875 288.386719 322.429688 278.917969 358.675781 C 278.429688 360.632812 277.777344 362.429688 276.796875 364.0625 Z M 104.398438 152.480469 C 107.664062 153.949219 111.089844 154.765625 114.84375 155.09375 C 132.640625 156.5625 150.273438 154.277344 167.414062 149.871094 C 183.738281 145.789062 200.554688 138.929688 213.617188 128.15625 C 226.675781 117.382812 235.980469 100.566406 228.308594 83.585938 C 217.695312 60.40625 193.046875 43.753906 195.003906 15.019531 C 195.003906 15.019531 195.003906 14.855469 194.839844 14.855469 L 194.679688 14.855469 C 194.515625 14.855469 194.515625 14.855469 194.515625 15.019531 C 193.863281 18.609375 192.71875 22.367188 192.390625 25.46875 C 191.738281 31.34375 192.554688 37.058594 194.679688 42.773438 C 195.820312 45.710938 196.964844 48.652344 198.105469 51.589844 C 202.1875 62.039062 201.859375 72.160156 196.800781 81.953125 C 189.945312 95.339844 177.046875 105.953125 162.191406 108.890625 C 147.824219 111.667969 133.128906 111.503906 118.925781 115.097656 C 110.273438 117.21875 100.96875 122.117188 96.5625 130.277344 C 91.664062 138.769531 95.746094 148.5625 104.398438 152.480469 Z M 192.71875 15.671875 C 187.332031 19.917969 182.761719 27.917969 182.433594 34.773438 C 181.945312 42.609375 182.269531 50.28125 178.351562 57.304688 C 172.148438 68.242188 161.046875 70.363281 151.089844 76.078125 C 145.210938 79.507812 138.355469 85.382812 135.253906 90.933594 C 133.457031 94.363281 132.476562 98.117188 132.804688 102.199219 C 132.804688 102.6875 132.96875 102.851562 133.457031 102.6875 C 139.824219 102.199219 146.191406 101.546875 152.722656 100.890625 C 156.964844 100.402344 160.558594 99.914062 163.167969 99.097656 C 173.292969 96.320312 182.921875 88.160156 188.3125 79.015625 C 192.71875 71.507812 194.1875 63.34375 192.882812 54.855469 C 192.230469 50.773438 190.269531 46.039062 188.800781 41.628906 C 187.65625 38.367188 187.332031 34.285156 187.820312 29.222656 C 188.3125 24 190.105469 19.425781 193.046875 15.835938 C 193.863281 15.019531 193.863281 14.855469 192.71875 15.671875 Z M 240.226562 103.503906 C 234.023438 129.953125 208.71875 145.296875 185.046875 153.789062 C 163.660156 161.460938 141.621094 164.890625 118.925781 164.398438 C 110.273438 164.234375 99.5 162.929688 92.644531 157.214844 C 92.480469 157.050781 92.152344 157.050781 91.988281 157.050781 C 83.171875 159.828125 72.398438 167.828125 74.683594 178.277344 C 77.949219 193.621094 101.785156 198.519531 114.519531 199.664062 C 126.601562 200.804688 138.519531 200.640625 150.597656 199.664062 C 170.351562 198.191406 189.617188 194.273438 208.226562 187.582031 C 225.207031 181.542969 241.371094 172.726562 254.429688 160.316406 C 264.878906 150.523438 273.367188 136.15625 266.183594 122.277344 C 261.125 112.484375 250.675781 106.441406 240.554688 103.179688 C 240.554688 103.179688 240.390625 103.179688 240.226562 103.503906 Z M 279.898438 137.789062 C 279.734375 137.789062 279.40625 137.789062 279.40625 138.113281 C 276.46875 154.605469 262.917969 168.316406 249.695312 177.621094 C 237.777344 186.113281 224.878906 192.640625 211.003906 197.539062 C 183.738281 207.007812 155.496094 211.417969 126.601562 210.765625 C 108.96875 210.273438 89.867188 207.988281 75.335938 197.378906 C 75.011719 197.214844 74.683594 197.214844 74.359375 197.378906 C 67.011719 204.886719 61.460938 214.519531 61.625 225.128906 C 61.789062 240.148438 73.867188 250.433594 87.417969 253.539062 C 92.152344 254.679688 96.234375 255.167969 99.335938 255.167969 C 118.273438 255.007812 135.742188 250.109375 151.742188 240.476562 C 154.84375 238.519531 159.25 235.742188 164.640625 231.988281 C 182.761719 219.742188 202.839844 213.210938 224.554688 210.273438 C 233.859375 208.96875 243.164062 208.316406 252.308594 206.847656 C 270.59375 204.070312 290.835938 194.601562 299.976562 177.621094 C 303.40625 171.417969 304.222656 165.050781 302.589844 158.523438 C 299.816406 147.582031 290.183594 141.378906 279.898438 137.789062 Z M 240.226562 232.640625 C 247.574219 233.945312 254.757812 239.007812 260.144531 241.128906 C 272.386719 245.863281 284.796875 246.515625 297.53125 242.925781 C 306.34375 240.476562 315.976562 234.925781 319.40625 226.4375 C 324.957031 212.558594 312.550781 200.96875 303.242188 192.480469 C 303.082031 192.316406 302.917969 192.316406 302.753906 192.480469 C 290.347656 206.03125 271.570312 213.867188 253.449219 215.988281 C 242.023438 217.292969 230.59375 218.109375 219.328125 220.234375 C 200.882812 223.496094 184.066406 230.519531 168.71875 240.964844 C 168.71875 240.964844 168.558594 241.128906 168.71875 241.128906 C 172.636719 243.742188 175.25 247.824219 178.1875 251.414062 C 182.921875 257.617188 189.617188 260.882812 197.617188 259.578125 C 204.636719 258.433594 210.023438 255.167969 214.105469 249.945312 C 214.433594 249.457031 215.574219 247.660156 217.371094 244.558594 C 222.921875 235.089844 229.125 230.679688 240.226562 232.640625 Z M 164.148438 280.472656 C 163.824219 273.292969 156.964844 274.433594 157.78125 281.453125 C 160.558594 306.105469 163.167969 330.59375 165.945312 355.246094 C 166.109375 356.226562 166.109375 356.878906 166.269531 357.53125 C 166.597656 359 167.25 359 167.742188 357.695312 C 167.902344 357.367188 167.902344 356.878906 167.902344 355.898438 C 166.761719 330.757812 165.453125 305.617188 164.148438 280.472656 Z M 252.308594 275.738281 C 249.695312 276.394531 249.207031 279.660156 248.878906 281.945312 C 245.777344 306.921875 242.675781 331.898438 239.574219 356.714844 C 239.410156 358.183594 239.898438 358.511719 240.878906 357.367188 C 240.878906 357.367188 241.042969 356.878906 241.207031 356.226562 C 245.941406 331.410156 250.839844 306.757812 255.574219 281.945312 C 256.0625 279.332031 255.898438 274.761719 252.308594 275.738281 Z M 225.042969 282.761719 C 225.207031 280.636719 224.878906 276.394531 222.105469 276.394531 C 219.820312 276.394531 218.511719 279.167969 218.511719 281.128906 C 217.535156 306.105469 216.554688 331.574219 215.410156 357.859375 C 215.410156 358.347656 215.574219 358.675781 216.226562 358.835938 L 216.390625 358.835938 C 216.71875 358.835938 217.042969 358.675781 217.042969 358.347656 C 219.65625 332.390625 222.269531 307.25 225.042969 282.761719 Z M 134.761719 282.269531 C 133.785156 274.921875 127.089844 276.066406 128.394531 282.921875 C 132.96875 307.738281 137.539062 332.390625 142.273438 357.203125 C 142.273438 357.53125 142.4375 357.859375 142.597656 358.183594 C 142.761719 358.347656 143.089844 358.511719 143.253906 358.347656 C 143.414062 358.347656 143.414062 358.183594 143.414062 358.019531 C 143.578125 357.367188 143.578125 356.878906 143.414062 356.390625 C 140.640625 331.574219 137.703125 306.921875 134.761719 282.269531 Z M 193.699219 278.84375 C 191.902344 275.578125 188.800781 278.515625 188.636719 280.800781 C 188.3125 283.902344 188.636719 288.472656 188.800781 290.757812 C 189.289062 313.125 189.78125 335.65625 190.105469 358.019531 C 190.105469 359.328125 190.269531 360.144531 190.433594 360.46875 C 190.761719 360.960938 191.085938 361.125 191.414062 360.960938 C 191.574219 360.960938 191.738281 360.796875 191.738281 360.632812 C 192.066406 359.980469 192.230469 359.328125 192.230469 358.675781 C 192.882812 333.53125 193.863281 308.390625 194.839844 283.25 C 194.839844 281.617188 194.515625 280.148438 193.699219 278.84375 Z M 280.222656 281.617188 C 279.734375 282.921875 279.40625 283.902344 279.40625 284.554688 C 275 308.390625 270.59375 332.390625 266.019531 356.390625 C 265.859375 356.878906 266.183594 357.042969 266.511719 356.878906 L 266.675781 356.714844 C 267.164062 356.550781 267.328125 356.226562 267.492188 355.734375 C 273.855469 332.226562 279.898438 308.882812 285.9375 285.699219 C 286.265625 284.394531 286.589844 282.269531 286.101562 281.128906 C 284.957031 278.1875 281.203125 279.003906 280.222656 281.617188 Z M 99.664062 281.289062 C 94.601562 280.3125 96.070312 287.003906 96.722656 289.289062 C 102.601562 311.65625 108.480469 334.347656 114.519531 357.203125 C 114.683594 357.695312 114.84375 357.695312 115.171875 357.367188 L 115.335938 357.203125 C 115.660156 356.878906 115.824219 356.390625 115.660156 355.898438 C 111.253906 332.226562 106.683594 308.71875 102.4375 285.371094 C 102.113281 283.578125 101.457031 281.617188 99.664062 281.289062 Z M 99.664062 281.289062 " fill-opacity="1" fill-rule="nonzero"/><path fill="#ffffff" d="M 215.574219 72.976562 C 218.511719 74.769531 220.308594 88.484375 214.433594 87.667969 C 210.675781 87.179688 213.125 82.769531 212.960938 80.484375 C 212.800781 78.527344 212.308594 76.730469 211.492188 75.097656 C 211.167969 74.609375 211.332031 73.957031 211.65625 73.464844 C 212.800781 72.324219 214.105469 72.160156 215.574219 72.976562 Z M 215.574219 72.976562 " fill-opacity="1" fill-rule="nonzero"/><path fill="#ffffff" d="M 163.332031 82.933594 L 163.660156 83.097656 C 164.964844 83.75 165.453125 85.382812 164.800781 86.6875 L 163.496094 89.464844 C 162.84375 90.769531 161.210938 91.261719 159.90625 90.605469 L 159.578125 90.445312 C 158.273438 89.789062 157.78125 88.160156 158.433594 86.851562 L 159.742188 84.078125 C 160.558594 82.769531 162.027344 82.28125 163.332031 82.933594 Z M 163.332031 82.933594 " fill-opacity="1" fill-rule="nonzero"/><path fill="#ffffff" d="M 257.207031 144.320312 C 256.226562 146.765625 254.429688 147.421875 252.144531 146.441406 C 250.023438 145.460938 250.347656 143.503906 251 141.542969 C 252.632812 135.828125 251.816406 130.441406 248.550781 125.707031 C 247.898438 124.726562 246.757812 123.421875 245.777344 122.277344 C 243.980469 119.832031 246.429688 116.566406 249.207031 117.382812 C 250.675781 117.707031 251.980469 119.339844 253.125 120.808594 C 258.511719 127.175781 260.632812 136.320312 257.207031 144.320312 Z M 257.207031 144.320312 " fill-opacity="1" fill-rule="nonzero"/><path fill="#ffffff" d="M 162.679688 140.890625 C 159.414062 142.195312 153.210938 144.644531 151.578125 139.746094 C 149.945312 134.6875 156.476562 132.5625 160.230469 131.257812 C 162.027344 130.605469 163.984375 130.117188 165.78125 131.09375 C 168.394531 132.5625 169.210938 136.480469 166.925781 138.605469 C 166.109375 139.257812 164.640625 140.074219 162.679688 140.890625 Z M 162.679688 140.890625 " fill-opacity="1" fill-rule="nonzero"/><path fill="#ffffff" d="M 278.589844 158.359375 L 281.855469 156.238281 C 283.980469 154.929688 286.753906 155.582031 288.0625 157.707031 L 288.386719 158.195312 C 289.691406 160.316406 289.039062 163.09375 286.917969 164.398438 L 283.652344 166.523438 C 281.53125 167.828125 278.753906 167.175781 277.449219 165.050781 L 277.121094 164.5625 C 275.980469 162.441406 276.46875 159.664062 278.589844 158.359375 Z M 278.589844 158.359375 " fill-opacity="1" fill-rule="nonzero"/><path fill="#ffffff" d="M 193.699219 235.089844 L 196.964844 232.96875 C 199.085938 231.660156 201.859375 232.3125 203.167969 234.4375 L 203.492188 234.925781 C 204.800781 237.046875 204.148438 239.824219 202.023438 241.128906 L 198.757812 243.253906 C 196.636719 244.558594 193.863281 243.90625 192.554688 241.78125 L 192.230469 241.292969 C 191.085938 239.171875 191.574219 236.394531 193.699219 235.089844 Z M 193.699219 235.089844 " fill-opacity="1" fill-rule="nonzero"/><path fill="#ffffff" d="M 203.167969 175.335938 C 200.066406 177.785156 194.515625 179.582031 190.921875 180.070312 C 187.820312 180.5625 184.554688 178.765625 184.882812 175.335938 C 185.210938 172.5625 187.167969 171.910156 189.945312 171.09375 C 192.230469 170.441406 195.167969 169.296875 198.269531 167.664062 C 203.820312 164.890625 207.738281 171.910156 203.167969 175.335938 Z M 203.167969 175.335938 " fill-opacity="1" fill-rule="nonzero"/><path fill="#ffffff" d="M 94.273438 175.335938 C 98.03125 176.96875 101.785156 177.132812 105.539062 175.664062 C 110.601562 173.703125 112.886719 180.234375 107.5 182.195312 C 101.296875 184.480469 95.417969 183.828125 90.195312 180.398438 C 88.398438 179.253906 87.09375 177.621094 88.234375 175.5 C 89.539062 172.5625 92.152344 174.359375 94.273438 175.335938 Z M 94.273438 175.335938 " fill-opacity="1" fill-rule="nonzero"/><path fill="#ffffff" d="M 283.488281 219.90625 L 289.855469 216.804688 C 292.140625 215.660156 294.917969 216.640625 296.058594 218.925781 L 296.222656 219.417969 C 297.367188 221.703125 296.386719 224.476562 294.101562 225.621094 L 287.734375 228.722656 C 285.449219 229.863281 282.671875 228.886719 281.53125 226.601562 L 281.367188 226.109375 C 280.222656 223.824219 281.203125 221.050781 283.488281 219.90625 Z M 283.488281 219.90625 " fill-opacity="1" fill-rule="nonzero"/><path fill="#ffffff" d="M 114.191406 227.742188 L 120.234375 224.640625 C 122.519531 223.496094 125.292969 224.3125 126.4375 226.601562 L 126.601562 227.089844 C 127.742188 229.375 126.925781 232.152344 124.640625 233.292969 L 118.601562 236.394531 C 116.316406 237.539062 113.539062 236.722656 112.398438 234.4375 L 112.234375 233.945312 C 111.089844 231.660156 111.90625 228.886719 114.191406 227.742188 Z M 114.191406 227.742188 " fill-opacity="1" fill-rule="nonzero"/></svg>