<svg xmlns="http://www.w3.org/2000/svg" xmlns:xlink="http://www.w3.org/1999/xlink" width="500" zoomAndPan="magnify" viewBox="0 0 375 374.999991" height="500" preserveAspectRatio="xMidYMid meet" version="1.0"><defs><clipPath id="25a12dc976"><path d="M 50 6.09375 L 184 6.09375 L 184 140 L 50 140 Z M 50 6.09375 " clip-rule="nonzero"/></clipPath></defs><path fill="#ffffff" d="M 187.304688 200.667969 L 205.777344 182.195312 C 206.5625 181.40625 207.351562 180.621094 208.136719 180.226562 C 197.523438 165.289062 182.585938 153.5 165.289062 146.816406 C 151.53125 155.855469 134.628906 161.359375 116.941406 161.359375 C 99.253906 161.359375 82.351562 155.855469 68.59375 146.816406 C 43.4375 156.644531 22.996094 177.082031 13.5625 203.417969 C 6.878906 222.289062 2.554688 242.335938 0.984375 262.382812 C 0.199219 271.421875 7.667969 279.285156 17.101562 279.285156 L 162.144531 279.285156 L 162.144531 261.203125 C 162.144531 248.230469 171.1875 237.222656 183.765625 234.867188 C 177.082031 224.253906 178.261719 209.707031 187.304688 200.667969 Z M 187.304688 200.667969 " fill-opacity="1" fill-rule="nonzero"/><g clip-path="url(#25a12dc976)"><path fill="#ffffff" d="M 116.941406 139.742188 C 153.890625 139.742188 183.765625 109.867188 183.765625 72.917969 C 183.765625 35.96875 153.890625 6.09375 116.941406 6.09375 C 79.992188 6.09375 50.117188 35.96875 50.117188 72.917969 C 50.511719 109.867188 80.386719 139.742188 116.941406 139.742188 Z M 116.941406 139.742188 " fill-opacity="1" fill-rule="nonzero"/></g><path fill="#ffffff" d="M 370.085938 255.699219 L 352.003906 253.734375 C 350.429688 247.835938 348.074219 242.335938 345.320312 237.222656 L 356.722656 223.074219 C 358.292969 221.109375 358.292969 217.964844 356.328125 216 L 337.460938 197.523438 C 335.496094 195.558594 332.351562 195.558594 330.382812 197.128906 L 316.234375 208.53125 C 311.125 205.777344 305.621094 203.417969 299.722656 201.847656 L 297.757812 183.765625 C 297.367188 181.015625 295.007812 179.046875 292.253906 179.046875 L 266.3125 179.046875 C 263.5625 179.046875 261.203125 181.015625 260.808594 183.765625 L 258.84375 201.453125 C 252.949219 203.027344 247.445312 205.386719 242.335938 208.136719 L 228.183594 196.738281 C 226.21875 195.164062 223.074219 195.164062 221.109375 197.128906 L 202.632812 215.605469 C 200.667969 217.570312 200.667969 220.714844 202.242188 222.679688 L 213.640625 236.832031 C 210.886719 241.941406 208.53125 247.445312 206.957031 253.339844 L 188.875 255.304688 C 186.125 255.699219 184.160156 258.058594 184.160156 260.808594 L 184.160156 286.753906 C 184.160156 289.503906 186.125 291.863281 188.875 292.253906 L 206.957031 294.222656 C 208.53125 300.117188 210.886719 305.621094 213.640625 310.730469 L 202.242188 324.882812 C 200.667969 326.847656 200.667969 329.992188 202.632812 331.957031 L 221.109375 350.429688 C 223.074219 352.398438 226.21875 352.398438 228.183594 350.824219 L 242.335938 339.425781 C 247.445312 342.175781 252.949219 344.535156 258.84375 346.109375 L 260.808594 364.1875 C 261.203125 366.941406 263.5625 368.90625 266.3125 368.90625 L 292.253906 368.90625 C 295.007812 368.90625 297.367188 366.941406 297.757812 364.1875 L 299.722656 346.109375 C 305.621094 344.535156 311.125 342.175781 316.234375 339.425781 L 330.382812 350.824219 C 332.351562 352.398438 335.496094 352.398438 337.460938 350.429688 L 355.933594 331.957031 C 357.898438 329.992188 357.898438 326.847656 356.328125 324.882812 L 344.929688 310.730469 C 347.679688 305.621094 350.039062 300.117188 351.609375 294.222656 L 369.691406 292.253906 C 372.445312 291.863281 374.410156 289.503906 374.410156 286.753906 L 374.410156 260.808594 C 374.800781 258.449219 372.835938 256.09375 370.085938 255.699219 Z M 279.285156 311.125 C 258.84375 311.125 242.335938 294.613281 242.335938 274.175781 C 242.335938 253.734375 258.84375 237.222656 279.285156 237.222656 C 299.722656 237.222656 316.234375 253.734375 316.234375 274.175781 C 316.234375 294.613281 299.722656 311.125 279.285156 311.125 Z M 279.285156 311.125 " fill-opacity="1" fill-rule="nonzero"/></svg>