<svg xmlns="http://www.w3.org/2000/svg" xmlns:xlink="http://www.w3.org/1999/xlink" width="500" zoomAndPan="magnify" viewBox="0 0 375 374.999991" height="500" preserveAspectRatio="xMidYMid meet" version="1.0"><defs><clipPath id="f2c7bcb77f"><path d="M 0 22.5 L 293 22.5 L 293 295 L 0 295 Z M 0 22.5 " clip-rule="nonzero"/></clipPath></defs><g clip-path="url(#f2c7bcb77f)"><path fill="#ffffff" d="M 292.816406 119.148438 C 292.816406 65.890625 249.527344 22.5625 196.320312 22.5625 L 96.5 22.5625 C 43.289062 22.5625 0 65.890625 0 119.148438 L 0 145.527344 C 0 187.070312 26.398438 223.847656 65.683594 237.042969 L 69.546875 238.335938 L 67.503906 241.863281 C 62.265625 250.910156 55.148438 265.121094 45.746094 285.304688 C 44.617188 287.726562 45.125 290.625 47.003906 292.523438 C 48.875 294.394531 51.855469 294.917969 54.195312 293.832031 L 167.261719 242.113281 L 196.320312 242.113281 C 249.527344 242.113281 292.816406 198.785156 292.816406 145.527344 Z M 280.011719 145.527344 C 280.011719 191.722656 242.46875 229.3125 196.320312 229.3125 L 165.867188 229.3125 C 164.957031 229.3125 164.035156 229.511719 163.203125 229.890625 L 64.863281 274.878906 L 69.121094 266.417969 C 73.011719 258.6875 80.042969 245.0625 83.421875 240.652344 L 83.800781 240.15625 L 84.339844 239.828125 C 86.015625 238.8125 87.121094 237.117188 87.371094 235.167969 C 87.808594 231.769531 85.503906 228.640625 82.128906 228.042969 C 41.960938 221.011719 12.800781 186.308594 12.800781 145.527344 L 12.800781 119.148438 C 12.800781 72.953125 50.347656 35.363281 96.496094 35.363281 L 196.316406 35.363281 C 242.464844 35.363281 280.011719 72.953125 280.011719 119.148438 Z M 280.011719 145.527344 " fill-opacity="1" fill-rule="nonzero"/></g><path fill="#ffffff" d="M 70.980469 116.371094 C 60.949219 116.371094 52.792969 124.53125 52.792969 134.558594 C 52.792969 144.589844 60.953125 152.75 70.980469 152.75 C 81.007812 152.75 89.167969 144.589844 89.167969 134.558594 C 89.167969 124.53125 81.011719 116.371094 70.980469 116.371094 Z M 70.980469 116.371094 " fill-opacity="1" fill-rule="nonzero"/><path fill="#ffffff" d="M 221.835938 116.371094 C 211.808594 116.371094 203.648438 124.53125 203.648438 134.558594 C 203.648438 144.589844 211.808594 152.75 221.835938 152.75 C 231.867188 152.75 240.027344 144.589844 240.027344 134.558594 C 240.027344 124.53125 231.867188 116.371094 221.835938 116.371094 Z M 221.835938 116.371094 " fill-opacity="1" fill-rule="nonzero"/><path fill="#ffffff" d="M 146.410156 116.371094 C 136.378906 116.371094 128.21875 124.53125 128.21875 134.558594 C 128.21875 144.589844 136.378906 152.75 146.410156 152.75 C 156.4375 152.75 164.597656 144.589844 164.597656 134.558594 C 164.597656 124.53125 156.4375 116.371094 146.410156 116.371094 Z M 146.410156 116.371094 " fill-opacity="1" fill-rule="nonzero"/><path fill="#ffffff" d="M 129.691406 270.753906 L 116.515625 276.78125 C 133.324219 291.015625 154.992188 299.664062 178.679688 299.664062 L 207.738281 299.664062 L 320.800781 351.382812 C 323.144531 352.46875 326.125 351.945312 327.992188 350.074219 C 329.875 348.175781 330.382812 345.277344 329.25 342.855469 C 319.851562 322.671875 312.734375 308.460938 307.496094 299.414062 L 305.453125 295.886719 L 309.316406 294.589844 C 348.601562 281.398438 375 244.621094 375 203.078125 L 375 176.699219 C 375 129.628906 341.144531 90.425781 296.554688 81.929688 C 298.261719 86.523438 299.644531 91.265625 300.714844 96.128906 C 300.738281 96.136719 300.761719 96.144531 300.785156 96.152344 C 300.761719 96.144531 300.734375 96.132812 300.707031 96.125 C 302.332031 103.542969 303.25 111.25 303.25 119.167969 L 303.25 145.542969 C 303.25 204.542969 255.289062 252.542969 196.332031 252.542969 L 169.542969 252.542969 M 287.625 292.714844 L 287.625 292.710938 " fill-opacity="1" fill-rule="nonzero"/></svg>