<svg xmlns="http://www.w3.org/2000/svg" xmlns:xlink="http://www.w3.org/1999/xlink" width="500" zoomAndPan="magnify" viewBox="0 0 375 374.999991" height="500" preserveAspectRatio="xMidYMid meet" version="1.0"><defs><g/></defs><path fill="#ffffff" d="M 365.054688 33.324219 L 9.945312 33.324219 C 4.476562 33.324219 0 37.796875 0 43.269531 L 0 278.015625 C 0 283.488281 4.476562 287.964844 9.945312 287.964844 L 151.195312 287.964844 L 141.246094 318.800781 C 141.246094 318.800781 122.347656 320.292969 110.410156 333.71875 L 110.410156 341.675781 L 263.59375 341.675781 L 263.59375 333.71875 C 252.15625 320.292969 232.757812 318.800781 232.757812 318.800781 L 222.8125 287.964844 L 364.058594 287.964844 C 369.527344 287.964844 374.003906 283.488281 374.003906 278.015625 L 374.003906 43.269531 C 375 37.796875 370.523438 33.324219 365.054688 33.324219 Z M 363.0625 273.542969 L 11.9375 273.542969 L 11.9375 48.242188 L 363.5625 48.242188 Z M 363.0625 273.542969 " fill-opacity="1" fill-rule="nonzero"/><g fill="#ffc1b2" fill-opacity="0.302"><g transform="translate(6.694848, 86.21998)"><g><path d="M 46.636719 -20.886719 C 46.109375 -23.070312 45.140625 -25.074219 43.785156 -26.816406 C 42.367188 -28.535156 40.609375 -29.972656 38.503906 -31.027344 L 25.59375 -37.488281 C 25.3125 -37.628906 25.050781 -37.609375 24.847656 -37.40625 C 24.605469 -37.226562 24.542969 -37.003906 24.644531 -36.699219 C 24.96875 -35.527344 24.886719 -34.351562 24.339844 -33.257812 L 8.09375 -0.804688 C 7.527344 0.328125 6.65625 1.054688 5.523438 1.5 C 5.199219 1.640625 5.058594 1.824219 5.058594 2.128906 C 5.019531 2.410156 5.179688 2.59375 5.460938 2.734375 L 14.609375 7.3125 C 14.851562 7.433594 15.09375 7.453125 15.296875 7.25 C 15.5 7.050781 15.601562 6.847656 15.558594 6.523438 C 15.277344 5.570312 15.359375 4.703125 15.761719 3.890625 L 18.71875 -2.015625 C 18.921875 -2.421875 19.226562 -2.722656 19.710938 -2.886719 C 20.136719 -3.027344 20.582031 -3.007812 21.027344 -2.785156 L 23.699219 -1.445312 C 25.800781 -0.394531 27.988281 0.195312 30.214844 0.296875 C 32.398438 0.378906 34.585938 -0.046875 36.671875 -0.976562 C 38.429688 -1.765625 40.050781 -2.875 41.46875 -4.292969 C 42.886719 -5.707031 44.101562 -7.328125 45.03125 -9.1875 C 45.964844 -11.050781 46.550781 -13.03125 46.835938 -15.015625 C 47.121094 -17 47.039062 -18.960938 46.636719 -20.886719 Z M 33.03125 -9.171875 C 31.371094 -8.386719 29.609375 -8.507812 27.707031 -9.460938 L 24.632812 -11 C 24.308594 -11.160156 24.105469 -11.363281 23.984375 -11.726562 C 23.84375 -12.050781 23.886719 -12.335938 24.046875 -12.65625 L 29.71875 -23.988281 C 29.859375 -24.273438 30.0625 -24.472656 30.425781 -24.59375 C 30.792969 -24.714844 31.09375 -24.714844 31.417969 -24.554688 L 34.492188 -23.015625 C 35.949219 -22.285156 36.882812 -21.414062 37.367188 -20.363281 C 37.851562 -19.308594 38.054688 -18.296875 38.054688 -17.285156 C 38.011719 -16.292969 37.871094 -15.40625 37.585938 -14.636719 C 37.304688 -13.867188 37.101562 -13.359375 37.019531 -13.199219 C 36.53125 -12.226562 35.925781 -11.417969 35.277344 -10.730469 C 34.589844 -10.0625 33.820312 -9.539062 33.03125 -9.171875 Z M 33.03125 -9.171875 "/></g></g></g><g fill="#ffc1b2" fill-opacity="0.302"><g transform="translate(42.304159, 104.043652)"><g><path d="M 37.1875 17.703125 C 37.269531 17.542969 37.25 17.378906 37.167969 17.238281 C 36.621094 16.003906 36.5 14.726562 36.785156 13.351562 L 43.84375 -24.914062 C 43.964844 -25.660156 44.390625 -26.207031 45.121094 -26.449219 C 45.34375 -26.59375 45.445312 -26.792969 45.484375 -27.078125 C 45.484375 -27.382812 45.34375 -27.605469 45.101562 -27.726562 L 34.417969 -33.074219 C 34.175781 -33.195312 33.910156 -33.175781 33.667969 -32.992188 C 33.425781 -32.808594 33.324219 -32.609375 33.382812 -32.324219 C 33.628906 -31.597656 33.445312 -30.929688 32.917969 -30.382812 L 6.539062 -1.738281 C 5.644531 -0.765625 4.511719 -0.121094 3.175781 0.222656 C 2.996094 0.285156 2.851562 0.367188 2.792969 0.488281 C 2.652344 0.667969 2.609375 0.851562 2.652344 1.074219 C 2.691406 1.296875 2.832031 1.417969 3.074219 1.539062 L 12.464844 6.238281 C 12.707031 6.359375 12.949219 6.378906 13.152344 6.179688 C 13.355469 5.976562 13.457031 5.773438 13.394531 5.488281 C 13.152344 4.761719 13.335938 4.09375 13.820312 3.527344 L 17.179688 -0.0546875 C 17.527344 -0.4375 17.949219 -0.679688 18.4375 -0.742188 C 18.882812 -0.820312 19.367188 -0.78125 19.851562 -0.539062 L 27.824219 3.453125 C 28.269531 3.675781 28.59375 4.039062 28.835938 4.464844 C 29.039062 4.871094 29.097656 5.355469 29.039062 5.882812 L 28.144531 10.695312 C 27.984375 11.425781 27.539062 11.910156 26.890625 12.195312 L 26.871094 12.234375 C 26.585938 12.394531 26.484375 12.597656 26.503906 12.863281 C 26.464844 13.144531 26.625 13.328125 26.910156 13.46875 L 27.558594 13.792969 L 36.214844 18.128906 C 36.417969 18.230469 36.601562 18.269531 36.804688 18.167969 C 37.007812 18.066406 37.128906 17.925781 37.1875 17.703125 Z M 30.460938 -5.25 L 25.238281 -7.863281 C 25.078125 -7.941406 24.976562 -8.042969 24.957031 -8.207031 C 24.894531 -8.386719 24.9375 -8.570312 25.097656 -8.691406 L 32.246094 -16.398438 C 32.386719 -16.582031 32.570312 -16.640625 32.8125 -16.519531 C 33.054688 -16.398438 33.113281 -16.214844 33.09375 -15.972656 L 31.167969 -5.652344 C 31.128906 -5.472656 31.003906 -5.328125 30.863281 -5.25 C 30.722656 -5.167969 30.582031 -5.1875 30.460938 -5.25 Z M 30.460938 -5.25 "/></g></g></g><g fill="#ffc1b2" fill-opacity="0.302"><g transform="translate(81.595796, 123.710452)"><g><path d="M 46.636719 -20.886719 C 46.109375 -23.070312 45.140625 -25.074219 43.785156 -26.816406 C 42.367188 -28.535156 40.609375 -29.972656 38.503906 -31.027344 L 25.59375 -37.488281 C 25.3125 -37.628906 25.050781 -37.609375 24.847656 -37.40625 C 24.605469 -37.226562 24.542969 -37.003906 24.644531 -36.699219 C 24.96875 -35.527344 24.886719 -34.351562 24.339844 -33.257812 L 8.09375 -0.804688 C 7.527344 0.328125 6.65625 1.054688 5.523438 1.5 C 5.199219 1.640625 5.058594 1.824219 5.058594 2.128906 C 5.019531 2.410156 5.179688 2.59375 5.460938 2.734375 L 14.609375 7.3125 C 14.851562 7.433594 15.09375 7.453125 15.296875 7.25 C 15.5 7.050781 15.601562 6.847656 15.558594 6.523438 C 15.277344 5.570312 15.359375 4.703125 15.761719 3.890625 L 18.71875 -2.015625 C 18.921875 -2.421875 19.226562 -2.722656 19.710938 -2.886719 C 20.136719 -3.027344 20.582031 -3.007812 21.027344 -2.785156 L 23.699219 -1.445312 C 25.800781 -0.394531 27.988281 0.195312 30.214844 0.296875 C 32.398438 0.378906 34.585938 -0.046875 36.671875 -0.976562 C 38.429688 -1.765625 40.050781 -2.875 41.46875 -4.292969 C 42.886719 -5.707031 44.101562 -7.328125 45.03125 -9.1875 C 45.964844 -11.050781 46.550781 -13.03125 46.835938 -15.015625 C 47.121094 -17 47.039062 -18.960938 46.636719 -20.886719 Z M 33.03125 -9.171875 C 31.371094 -8.386719 29.609375 -8.507812 27.707031 -9.460938 L 24.632812 -11 C 24.308594 -11.160156 24.105469 -11.363281 23.984375 -11.726562 C 23.84375 -12.050781 23.886719 -12.335938 24.046875 -12.65625 L 29.71875 -23.988281 C 29.859375 -24.273438 30.0625 -24.472656 30.425781 -24.59375 C 30.792969 -24.714844 31.09375 -24.714844 31.417969 -24.554688 L 34.492188 -23.015625 C 35.949219 -22.285156 36.882812 -21.414062 37.367188 -20.363281 C 37.851562 -19.308594 38.054688 -18.296875 38.054688 -17.285156 C 38.011719 -16.292969 37.871094 -15.40625 37.585938 -14.636719 C 37.304688 -13.867188 37.101562 -13.359375 37.019531 -13.199219 C 36.53125 -12.226562 35.925781 -11.417969 35.277344 -10.730469 C 34.589844 -10.0625 33.820312 -9.539062 33.03125 -9.171875 Z M 33.03125 -9.171875 "/></g></g></g><g fill="#ffc1b2" fill-opacity="0.302"><g transform="translate(117.205107, 141.534123)"><g><path d="M 37.1875 17.703125 C 37.269531 17.542969 37.25 17.378906 37.167969 17.238281 C 36.621094 16.003906 36.5 14.726562 36.785156 13.351562 L 43.84375 -24.914062 C 43.964844 -25.660156 44.390625 -26.207031 45.121094 -26.449219 C 45.34375 -26.59375 45.445312 -26.792969 45.484375 -27.078125 C 45.484375 -27.382812 45.34375 -27.605469 45.101562 -27.726562 L 34.417969 -33.074219 C 34.175781 -33.195312 33.910156 -33.175781 33.667969 -32.992188 C 33.425781 -32.808594 33.324219 -32.609375 33.382812 -32.324219 C 33.628906 -31.597656 33.445312 -30.929688 32.917969 -30.382812 L 6.539062 -1.738281 C 5.644531 -0.765625 4.511719 -0.121094 3.175781 0.222656 C 2.996094 0.285156 2.851562 0.367188 2.792969 0.488281 C 2.652344 0.667969 2.609375 0.851562 2.652344 1.074219 C 2.691406 1.296875 2.832031 1.417969 3.074219 1.539062 L 12.464844 6.238281 C 12.707031 6.359375 12.949219 6.378906 13.152344 6.179688 C 13.355469 5.976562 13.457031 5.773438 13.394531 5.488281 C 13.152344 4.761719 13.335938 4.09375 13.820312 3.527344 L 17.179688 -0.0546875 C 17.527344 -0.4375 17.949219 -0.679688 18.4375 -0.742188 C 18.882812 -0.820312 19.367188 -0.78125 19.851562 -0.539062 L 27.824219 3.453125 C 28.269531 3.675781 28.59375 4.039062 28.835938 4.464844 C 29.039062 4.871094 29.097656 5.355469 29.039062 5.882812 L 28.144531 10.695312 C 27.984375 11.425781 27.539062 11.910156 26.890625 12.195312 L 26.871094 12.234375 C 26.585938 12.394531 26.484375 12.597656 26.503906 12.863281 C 26.464844 13.144531 26.625 13.328125 26.910156 13.46875 L 27.558594 13.792969 L 36.214844 18.128906 C 36.417969 18.230469 36.601562 18.269531 36.804688 18.167969 C 37.007812 18.066406 37.128906 17.925781 37.1875 17.703125 Z M 30.460938 -5.25 L 25.238281 -7.863281 C 25.078125 -7.941406 24.976562 -8.042969 24.957031 -8.207031 C 24.894531 -8.386719 24.9375 -8.570312 25.097656 -8.691406 L 32.246094 -16.398438 C 32.386719 -16.582031 32.570312 -16.640625 32.8125 -16.519531 C 33.054688 -16.398438 33.113281 -16.214844 33.09375 -15.972656 L 31.167969 -5.652344 C 31.128906 -5.472656 31.003906 -5.328125 30.863281 -5.25 C 30.722656 -5.167969 30.582031 -5.1875 30.460938 -5.25 Z M 30.460938 -5.25 "/></g></g></g><g fill="#ffc1b2" fill-opacity="0.302"><g transform="translate(156.496744, 161.200924)"><g><path d="M 48.414062 -13.617188 L 48.332031 -13.964844 C 48.050781 -14.8125 48.007812 -15.644531 48.128906 -16.492188 C 48.535156 -19.125 47.972656 -21.734375 46.515625 -24.285156 C 45.6875 -25.660156 44.613281 -26.957031 43.277344 -28.132812 C 41.945312 -29.304688 40.46875 -30.296875 38.765625 -31.148438 C 37.066406 -32 35.289062 -32.585938 33.507812 -32.972656 C 31.726562 -33.355469 30.003906 -33.460938 28.367188 -33.316406 C 26.140625 -33.117188 24.257812 -32.492188 22.617188 -31.4375 C 20.980469 -30.386719 19.765625 -28.972656 18.871094 -27.191406 C 17.171875 -23.792969 17.292969 -20.089844 19.332031 -16.082031 C 20.019531 -14.621094 20.871094 -13.285156 21.882812 -11.972656 C 22.894531 -10.65625 23.945312 -9.320312 25.035156 -8.0625 C 25.644531 -7.253906 26.332031 -6.402344 27.019531 -5.554688 C 27.707031 -4.703125 28.292969 -3.851562 28.820312 -3.082031 C 29.324219 -2.273438 29.707031 -1.523438 29.972656 -0.835938 C 30.214844 -0.109375 30.234375 0.457031 30.011719 0.902344 C 29.726562 1.46875 29.261719 1.894531 28.65625 2.097656 C 28.046875 2.296875 27.339844 2.398438 26.609375 2.339844 C 25.882812 2.277344 25.132812 2.15625 24.34375 1.914062 C 23.535156 1.710938 22.867188 1.425781 22.21875 1.101562 C 21.410156 0.695312 20.640625 0.210938 19.851562 -0.4375 C 19.042969 -1.042969 18.4375 -1.753906 18.050781 -2.5 C 17.953125 -2.703125 17.910156 -2.925781 18.011719 -3.128906 C 18.074219 -3.351562 18.195312 -3.492188 18.4375 -3.574219 L 18.5 -3.59375 C 18.722656 -3.734375 18.820312 -3.9375 18.863281 -4.222656 C 18.863281 -4.523438 18.722656 -4.746094 18.480469 -4.871094 L 9.535156 -9.34375 C 9.253906 -9.488281 8.988281 -9.46875 8.785156 -9.265625 C 8.542969 -9.082031 8.441406 -8.878906 8.503906 -8.597656 L 8.585938 -8.355469 C 8.828125 -7.421875 8.847656 -6.554688 8.746094 -5.742188 C 8.296875 -3.03125 8.824219 -0.441406 10.378906 2.109375 C 11.191406 3.527344 12.300781 4.84375 13.636719 6.015625 C 14.953125 7.230469 16.511719 8.265625 18.210938 9.113281 C 20.234375 10.128906 22.277344 10.796875 24.300781 11.101562 C 26.324219 11.40625 28.207031 11.386719 29.964844 11 C 31.707031 10.660156 33.285156 9.929688 34.703125 8.917969 C 36.078125 7.886719 37.191406 6.574219 38.023438 4.914062 C 38.894531 3.171875 39.257812 1.433594 39.136719 -0.246094 C 39.019531 -1.925781 38.613281 -3.546875 37.886719 -5.125 C 37.15625 -6.703125 36.269531 -8.160156 35.175781 -9.617188 C 34.082031 -11.074219 32.992188 -12.433594 31.941406 -13.769531 C 31.210938 -14.636719 30.484375 -15.507812 29.777344 -16.417969 C 29.046875 -17.289062 28.421875 -18.160156 27.933594 -19.011719 C 27.429688 -19.820312 27.066406 -20.609375 26.824219 -21.339844 C 26.582031 -22.066406 26.621094 -22.652344 26.882812 -23.179688 C 27.109375 -23.625 27.472656 -23.949219 28.078125 -24.152344 C 28.644531 -24.375 29.292969 -24.453125 30.042969 -24.433594 C 30.730469 -24.394531 31.519531 -24.25 32.371094 -24.027344 C 33.179688 -23.824219 33.988281 -23.519531 34.757812 -23.136719 C 35.648438 -22.691406 36.476562 -22.125 37.203125 -21.558594 C 37.914062 -20.949219 38.417969 -20.34375 38.804688 -19.695312 C 38.902344 -19.492188 38.945312 -19.269531 38.84375 -19.066406 C 38.742188 -18.863281 38.621094 -18.722656 38.4375 -18.664062 L 38.417969 -18.621094 C 38.132812 -18.460938 38.035156 -18.257812 38.054688 -17.996094 C 38.011719 -17.710938 38.175781 -17.527344 38.457031 -17.386719 L 47.402344 -12.910156 C 47.644531 -12.789062 47.886719 -12.769531 48.128906 -12.953125 C 48.3125 -13.113281 48.414062 -13.316406 48.414062 -13.617188 Z M 48.414062 -13.617188 "/></g></g></g><g fill="#ffc1b2" fill-opacity="0.302"><g transform="translate(193.117679, 179.530946)"><g><path d="M 52.324219 -25.375 L 52.261719 -25.355469 C 51.210938 -25.070312 50.238281 -25.152344 49.308594 -25.621094 L 28.507812 -36.03125 C 27.539062 -36.515625 26.890625 -37.246094 26.488281 -38.257812 L 26.507812 -38.296875 C 26.324219 -38.539062 26.121094 -38.640625 25.820312 -38.640625 C 25.515625 -38.640625 25.351562 -38.519531 25.230469 -38.277344 L 20.734375 -29.292969 C 20.59375 -29.011719 20.574219 -28.769531 20.777344 -28.566406 C 20.957031 -28.324219 21.160156 -28.222656 21.484375 -28.261719 C 22.535156 -28.542969 23.527344 -28.503906 24.5 -28.019531 L 30.082031 -25.222656 C 30.285156 -25.121094 30.445312 -24.9375 30.527344 -24.695312 C 30.609375 -24.453125 30.589844 -24.210938 30.488281 -24.007812 L 16.550781 3.832031 C 16.066406 4.804688 15.316406 5.492188 14.324219 5.855469 L 14.265625 5.875 C 13.980469 6.035156 13.878906 6.238281 13.878906 6.542969 C 13.839844 6.824219 14 7.007812 14.285156 7.148438 L 23.269531 11.644531 C 23.511719 11.769531 23.710938 11.769531 23.957031 11.585938 C 24.199219 11.402344 24.300781 11.203125 24.300781 10.898438 C 23.976562 9.824219 24.058594 8.855469 24.542969 7.882812 L 38.5 -19.996094 C 38.601562 -20.199219 38.78125 -20.363281 39.027344 -20.441406 C 39.269531 -20.523438 39.472656 -20.523438 39.714844 -20.402344 L 45.296875 -17.605469 C 46.269531 -17.121094 46.894531 -16.351562 47.261719 -15.359375 L 47.300781 -15.339844 C 47.421875 -15.078125 47.625 -14.976562 47.929688 -14.976562 C 48.210938 -14.933594 48.433594 -15.078125 48.574219 -15.359375 L 53.070312 -24.34375 C 53.195312 -24.585938 53.152344 -24.808594 52.972656 -25.050781 C 52.789062 -25.292969 52.585938 -25.394531 52.324219 -25.375 Z M 52.324219 -25.375 "/></g></g></g><g fill="#ffc1b2" fill-opacity="0.302"><g transform="translate(230.669326, 198.326823)"><g><path d="M 37.1875 17.703125 C 37.269531 17.542969 37.25 17.378906 37.167969 17.238281 C 36.621094 16.003906 36.5 14.726562 36.785156 13.351562 L 43.84375 -24.914062 C 43.964844 -25.660156 44.390625 -26.207031 45.121094 -26.449219 C 45.34375 -26.59375 45.445312 -26.792969 45.484375 -27.078125 C 45.484375 -27.382812 45.34375 -27.605469 45.101562 -27.726562 L 34.417969 -33.074219 C 34.175781 -33.195312 33.910156 -33.175781 33.667969 -32.992188 C 33.425781 -32.808594 33.324219 -32.609375 33.382812 -32.324219 C 33.628906 -31.597656 33.445312 -30.929688 32.917969 -30.382812 L 6.539062 -1.738281 C 5.644531 -0.765625 4.511719 -0.121094 3.175781 0.222656 C 2.996094 0.285156 2.851562 0.367188 2.792969 0.488281 C 2.652344 0.667969 2.609375 0.851562 2.652344 1.074219 C 2.691406 1.296875 2.832031 1.417969 3.074219 1.539062 L 12.464844 6.238281 C 12.707031 6.359375 12.949219 6.378906 13.152344 6.179688 C 13.355469 5.976562 13.457031 5.773438 13.394531 5.488281 C 13.152344 4.761719 13.335938 4.09375 13.820312 3.527344 L 17.179688 -0.0546875 C 17.527344 -0.4375 17.949219 -0.679688 18.4375 -0.742188 C 18.882812 -0.820312 19.367188 -0.78125 19.851562 -0.539062 L 27.824219 3.453125 C 28.269531 3.675781 28.59375 4.039062 28.835938 4.464844 C 29.039062 4.871094 29.097656 5.355469 29.039062 5.882812 L 28.144531 10.695312 C 27.984375 11.425781 27.539062 11.910156 26.890625 12.195312 L 26.871094 12.234375 C 26.585938 12.394531 26.484375 12.597656 26.503906 12.863281 C 26.464844 13.144531 26.625 13.328125 26.910156 13.46875 L 27.558594 13.792969 L 36.214844 18.128906 C 36.417969 18.230469 36.601562 18.269531 36.804688 18.167969 C 37.007812 18.066406 37.128906 17.925781 37.1875 17.703125 Z M 30.460938 -5.25 L 25.238281 -7.863281 C 25.078125 -7.941406 24.976562 -8.042969 24.957031 -8.207031 C 24.894531 -8.386719 24.9375 -8.570312 25.097656 -8.691406 L 32.246094 -16.398438 C 32.386719 -16.582031 32.570312 -16.640625 32.8125 -16.519531 C 33.054688 -16.398438 33.113281 -16.214844 33.09375 -15.972656 L 31.167969 -5.652344 C 31.128906 -5.472656 31.003906 -5.328125 30.863281 -5.25 C 30.722656 -5.167969 30.582031 -5.1875 30.460938 -5.25 Z M 30.460938 -5.25 "/></g></g></g><g fill="#ffc1b2" fill-opacity="0.302"><g transform="translate(269.960962, 217.993623)"><g><path d="M 38.21875 17.867188 L 38.199219 17.804688 C 37.875 16.832031 38 15.882812 38.484375 14.910156 L 55.132812 -18.351562 C 55.597656 -19.28125 56.289062 -19.949219 57.28125 -20.3125 L 57.339844 -20.335938 C 57.5625 -20.476562 57.664062 -20.679688 57.703125 -20.960938 C 57.703125 -21.265625 57.5625 -21.488281 57.320312 -21.609375 L 48.378906 -26.085938 C 48.09375 -26.226562 47.832031 -26.207031 47.628906 -26.003906 C 47.386719 -25.824219 47.285156 -25.621094 47.34375 -25.335938 L 47.367188 -25.277344 C 47.628906 -24.285156 47.546875 -23.3125 47.082031 -22.382812 L 37.015625 -2.269531 C 36.933594 -2.109375 36.792969 -2.027344 36.609375 -2.070312 C 36.425781 -2.109375 36.328125 -2.210938 36.328125 -2.414062 L 34.316406 -30.039062 C 34.234375 -30.683594 34.558594 -31.128906 35.207031 -31.414062 C 35.429688 -31.554688 35.53125 -31.757812 35.570312 -32.039062 C 35.570312 -32.34375 35.429688 -32.566406 35.1875 -32.6875 L 34.09375 -33.234375 L 34.074219 -33.195312 L 34.09375 -33.234375 L 26.082031 -37.246094 L 25.636719 -37.46875 C 25.351562 -37.609375 25.089844 -37.589844 24.886719 -37.386719 C 24.644531 -37.207031 24.542969 -37.003906 24.605469 -36.71875 C 24.886719 -35.667969 24.804688 -34.695312 24.359375 -33.804688 L 7.671875 -0.460938 C 7.203125 0.46875 6.476562 1.117188 5.484375 1.480469 C 5.199219 1.640625 5.097656 1.84375 5.097656 2.148438 C 5.058594 2.429688 5.21875 2.613281 5.503906 2.753906 L 14.445312 7.230469 C 14.6875 7.351562 14.933594 7.371094 15.175781 7.191406 C 15.378906 6.988281 15.476562 6.785156 15.480469 6.484375 L 15.4375 6.359375 C 15.113281 5.390625 15.238281 4.4375 15.722656 3.46875 L 25.769531 -16.605469 C 25.851562 -16.765625 25.929688 -16.828125 26.113281 -16.785156 C 26.296875 -16.746094 26.394531 -16.644531 26.457031 -16.460938 L 28.488281 11.222656 C 28.46875 11.871094 28.183594 12.335938 27.617188 12.558594 C 27.335938 12.71875 27.234375 12.921875 27.234375 13.226562 C 27.191406 13.507812 27.355469 13.691406 27.636719 13.832031 L 28.691406 14.359375 L 36.742188 18.390625 L 37.1875 18.613281 C 37.429688 18.734375 37.671875 18.753906 37.917969 18.574219 C 38.117188 18.371094 38.21875 18.167969 38.21875 17.867188 Z M 38.21875 17.867188 "/></g></g></g><g fill="#ffc1b2" fill-opacity="0.302"><g transform="translate(312.651674, 239.361776)"><g><path d="M 49.734375 -25.761719 C 48.722656 -25.457031 47.769531 -25.578125 46.878906 -26.023438 L 25.3125 -36.820312 C 25.027344 -36.960938 24.765625 -36.941406 24.5625 -36.738281 C 24.320312 -36.558594 24.21875 -36.355469 24.28125 -36.074219 L 24.339844 -35.890625 C 24.625 -34.835938 24.523438 -33.824219 24.035156 -32.855469 L 7.589844 0.00390625 C 7.347656 0.488281 7.042969 0.894531 6.65625 1.257812 C 6.273438 1.621094 5.828125 1.90625 5.339844 2.066406 L 5.160156 2.128906 C 4.875 2.289062 4.773438 2.492188 4.773438 2.792969 C 4.734375 3.078125 4.894531 3.261719 5.179688 3.402344 L 26.746094 14.199219 C 27.636719 14.644531 28.285156 15.371094 28.667969 16.324219 C 28.769531 16.625 28.992188 16.789062 29.296875 16.789062 C 29.578125 16.828125 29.84375 16.707031 30.003906 16.382812 L 34.519531 7.359375 C 34.644531 7.117188 34.621094 6.855469 34.441406 6.613281 C 34.238281 6.410156 33.976562 6.328125 33.734375 6.410156 C 32.660156 6.734375 31.648438 6.632812 30.675781 6.144531 L 18.78125 0.191406 C 18.496094 0.046875 18.292969 -0.152344 18.191406 -0.457031 C 18.070312 -0.722656 18.113281 -1.003906 18.273438 -1.328125 L 21.3125 -7.398438 C 21.453125 -7.679688 21.65625 -7.882812 21.960938 -7.984375 C 22.242188 -8.042969 22.546875 -8.042969 22.832031 -7.902344 L 26.390625 -6.121094 C 27.363281 -5.632812 28.03125 -4.84375 28.433594 -3.832031 C 28.554688 -3.570312 28.757812 -3.46875 29.0625 -3.46875 C 29.367188 -3.46875 29.589844 -3.609375 29.710938 -3.851562 L 34.207031 -12.835938 C 34.328125 -13.078125 34.289062 -13.300781 34.105469 -13.542969 C 33.921875 -13.789062 33.722656 -13.886719 33.457031 -13.867188 C 32.386719 -13.546875 31.375 -13.648438 30.402344 -14.132812 L 26.839844 -15.914062 C 26.558594 -16.058594 26.355469 -16.257812 26.253906 -16.5625 C 26.132812 -16.824219 26.175781 -17.109375 26.335938 -17.433594 L 29.375 -23.503906 C 29.515625 -23.785156 29.71875 -23.988281 30.023438 -24.089844 C 30.304688 -24.148438 30.609375 -24.148438 30.890625 -24.007812 L 42.789062 -18.054688 C 43.761719 -17.566406 44.425781 -16.777344 44.832031 -15.765625 C 44.890625 -15.484375 45.113281 -15.320312 45.417969 -15.320312 C 45.703125 -15.28125 45.925781 -15.421875 46.066406 -15.703125 L 50.601562 -24.769531 C 50.726562 -25.011719 50.664062 -25.296875 50.480469 -25.539062 C 50.28125 -25.742188 50.015625 -25.820312 49.734375 -25.761719 Z M 49.734375 -25.761719 "/></g></g></g><g fill="#ffc1b2" fill-opacity="0.502"><g transform="translate(7.538272, 87.210631)"><g><path d="M 46.636719 -20.886719 C 46.109375 -23.070312 45.140625 -25.074219 43.785156 -26.816406 C 42.367188 -28.535156 40.609375 -29.972656 38.503906 -31.027344 L 25.59375 -37.488281 C 25.3125 -37.628906 25.050781 -37.609375 24.847656 -37.40625 C 24.605469 -37.226562 24.542969 -37.003906 24.644531 -36.699219 C 24.96875 -35.527344 24.886719 -34.351562 24.339844 -33.257812 L 8.09375 -0.804688 C 7.527344 0.328125 6.65625 1.054688 5.523438 1.5 C 5.199219 1.640625 5.058594 1.824219 5.058594 2.128906 C 5.019531 2.410156 5.179688 2.59375 5.460938 2.734375 L 14.609375 7.3125 C 14.851562 7.433594 15.09375 7.453125 15.296875 7.25 C 15.5 7.050781 15.601562 6.847656 15.558594 6.523438 C 15.277344 5.570312 15.359375 4.703125 15.761719 3.890625 L 18.71875 -2.015625 C 18.921875 -2.421875 19.226562 -2.722656 19.710938 -2.886719 C 20.136719 -3.027344 20.582031 -3.007812 21.027344 -2.785156 L 23.699219 -1.445312 C 25.800781 -0.394531 27.988281 0.195312 30.214844 0.296875 C 32.398438 0.378906 34.585938 -0.046875 36.671875 -0.976562 C 38.429688 -1.765625 40.050781 -2.875 41.46875 -4.292969 C 42.886719 -5.707031 44.101562 -7.328125 45.03125 -9.1875 C 45.964844 -11.050781 46.550781 -13.03125 46.835938 -15.015625 C 47.121094 -17 47.039062 -18.960938 46.636719 -20.886719 Z M 33.03125 -9.171875 C 31.371094 -8.386719 29.609375 -8.507812 27.707031 -9.460938 L 24.632812 -11 C 24.308594 -11.160156 24.105469 -11.363281 23.984375 -11.726562 C 23.84375 -12.050781 23.886719 -12.335938 24.046875 -12.65625 L 29.71875 -23.988281 C 29.859375 -24.273438 30.0625 -24.472656 30.425781 -24.59375 C 30.792969 -24.714844 31.09375 -24.714844 31.417969 -24.554688 L 34.492188 -23.015625 C 35.949219 -22.285156 36.882812 -21.414062 37.367188 -20.363281 C 37.851562 -19.308594 38.054688 -18.296875 38.054688 -17.285156 C 38.011719 -16.292969 37.871094 -15.40625 37.585938 -14.636719 C 37.304688 -13.867188 37.101562 -13.359375 37.019531 -13.199219 C 36.53125 -12.226562 35.925781 -11.417969 35.277344 -10.730469 C 34.589844 -10.0625 33.820312 -9.539062 33.03125 -9.171875 Z M 33.03125 -9.171875 "/></g></g></g><g fill="#ffc1b2" fill-opacity="0.502"><g transform="translate(43.147583, 105.034302)"><g><path d="M 37.1875 17.703125 C 37.269531 17.542969 37.25 17.378906 37.167969 17.238281 C 36.621094 16.003906 36.5 14.726562 36.785156 13.351562 L 43.84375 -24.914062 C 43.964844 -25.660156 44.390625 -26.207031 45.121094 -26.449219 C 45.34375 -26.59375 45.445312 -26.792969 45.484375 -27.078125 C 45.484375 -27.382812 45.34375 -27.605469 45.101562 -27.726562 L 34.417969 -33.074219 C 34.175781 -33.195312 33.910156 -33.175781 33.667969 -32.992188 C 33.425781 -32.808594 33.324219 -32.609375 33.382812 -32.324219 C 33.628906 -31.597656 33.445312 -30.929688 32.917969 -30.382812 L 6.539062 -1.738281 C 5.644531 -0.765625 4.511719 -0.121094 3.175781 0.222656 C 2.996094 0.285156 2.851562 0.367188 2.792969 0.488281 C 2.652344 0.667969 2.609375 0.851562 2.652344 1.074219 C 2.691406 1.296875 2.832031 1.417969 3.074219 1.539062 L 12.464844 6.238281 C 12.707031 6.359375 12.949219 6.378906 13.152344 6.179688 C 13.355469 5.976562 13.457031 5.773438 13.394531 5.488281 C 13.152344 4.761719 13.335938 4.09375 13.820312 3.527344 L 17.179688 -0.0546875 C 17.527344 -0.4375 17.949219 -0.679688 18.4375 -0.742188 C 18.882812 -0.820312 19.367188 -0.78125 19.851562 -0.539062 L 27.824219 3.453125 C 28.269531 3.675781 28.59375 4.039062 28.835938 4.464844 C 29.039062 4.871094 29.097656 5.355469 29.039062 5.882812 L 28.144531 10.695312 C 27.984375 11.425781 27.539062 11.910156 26.890625 12.195312 L 26.871094 12.234375 C 26.585938 12.394531 26.484375 12.597656 26.503906 12.863281 C 26.464844 13.144531 26.625 13.328125 26.910156 13.46875 L 27.558594 13.792969 L 36.214844 18.128906 C 36.417969 18.230469 36.601562 18.269531 36.804688 18.167969 C 37.007812 18.066406 37.128906 17.925781 37.1875 17.703125 Z M 30.460938 -5.25 L 25.238281 -7.863281 C 25.078125 -7.941406 24.976562 -8.042969 24.957031 -8.207031 C 24.894531 -8.386719 24.9375 -8.570312 25.097656 -8.691406 L 32.246094 -16.398438 C 32.386719 -16.582031 32.570312 -16.640625 32.8125 -16.519531 C 33.054688 -16.398438 33.113281 -16.214844 33.09375 -15.972656 L 31.167969 -5.652344 C 31.128906 -5.472656 31.003906 -5.328125 30.863281 -5.25 C 30.722656 -5.167969 30.582031 -5.1875 30.460938 -5.25 Z M 30.460938 -5.25 "/></g></g></g><g fill="#ffc1b2" fill-opacity="0.502"><g transform="translate(82.43922, 124.701102)"><g><path d="M 46.636719 -20.886719 C 46.109375 -23.070312 45.140625 -25.074219 43.785156 -26.816406 C 42.367188 -28.535156 40.609375 -29.972656 38.503906 -31.027344 L 25.59375 -37.488281 C 25.3125 -37.628906 25.050781 -37.609375 24.847656 -37.40625 C 24.605469 -37.226562 24.542969 -37.003906 24.644531 -36.699219 C 24.96875 -35.527344 24.886719 -34.351562 24.339844 -33.257812 L 8.09375 -0.804688 C 7.527344 0.328125 6.65625 1.054688 5.523438 1.5 C 5.199219 1.640625 5.058594 1.824219 5.058594 2.128906 C 5.019531 2.410156 5.179688 2.59375 5.460938 2.734375 L 14.609375 7.3125 C 14.851562 7.433594 15.09375 7.453125 15.296875 7.25 C 15.5 7.050781 15.601562 6.847656 15.558594 6.523438 C 15.277344 5.570312 15.359375 4.703125 15.761719 3.890625 L 18.71875 -2.015625 C 18.921875 -2.421875 19.226562 -2.722656 19.710938 -2.886719 C 20.136719 -3.027344 20.582031 -3.007812 21.027344 -2.785156 L 23.699219 -1.445312 C 25.800781 -0.394531 27.988281 0.195312 30.214844 0.296875 C 32.398438 0.378906 34.585938 -0.046875 36.671875 -0.976562 C 38.429688 -1.765625 40.050781 -2.875 41.46875 -4.292969 C 42.886719 -5.707031 44.101562 -7.328125 45.03125 -9.1875 C 45.964844 -11.050781 46.550781 -13.03125 46.835938 -15.015625 C 47.121094 -17 47.039062 -18.960938 46.636719 -20.886719 Z M 33.03125 -9.171875 C 31.371094 -8.386719 29.609375 -8.507812 27.707031 -9.460938 L 24.632812 -11 C 24.308594 -11.160156 24.105469 -11.363281 23.984375 -11.726562 C 23.84375 -12.050781 23.886719 -12.335938 24.046875 -12.65625 L 29.71875 -23.988281 C 29.859375 -24.273438 30.0625 -24.472656 30.425781 -24.59375 C 30.792969 -24.714844 31.09375 -24.714844 31.417969 -24.554688 L 34.492188 -23.015625 C 35.949219 -22.285156 36.882812 -21.414062 37.367188 -20.363281 C 37.851562 -19.308594 38.054688 -18.296875 38.054688 -17.285156 C 38.011719 -16.292969 37.871094 -15.40625 37.585938 -14.636719 C 37.304688 -13.867188 37.101562 -13.359375 37.019531 -13.199219 C 36.53125 -12.226562 35.925781 -11.417969 35.277344 -10.730469 C 34.589844 -10.0625 33.820312 -9.539062 33.03125 -9.171875 Z M 33.03125 -9.171875 "/></g></g></g><g fill="#ffc1b2" fill-opacity="0.502"><g transform="translate(118.048531, 142.524774)"><g><path d="M 37.1875 17.703125 C 37.269531 17.542969 37.25 17.378906 37.167969 17.238281 C 36.621094 16.003906 36.5 14.726562 36.785156 13.351562 L 43.84375 -24.914062 C 43.964844 -25.660156 44.390625 -26.207031 45.121094 -26.449219 C 45.34375 -26.59375 45.445312 -26.792969 45.484375 -27.078125 C 45.484375 -27.382812 45.34375 -27.605469 45.101562 -27.726562 L 34.417969 -33.074219 C 34.175781 -33.195312 33.910156 -33.175781 33.667969 -32.992188 C 33.425781 -32.808594 33.324219 -32.609375 33.382812 -32.324219 C 33.628906 -31.597656 33.445312 -30.929688 32.917969 -30.382812 L 6.539062 -1.738281 C 5.644531 -0.765625 4.511719 -0.121094 3.175781 0.222656 C 2.996094 0.285156 2.851562 0.367188 2.792969 0.488281 C 2.652344 0.667969 2.609375 0.851562 2.652344 1.074219 C 2.691406 1.296875 2.832031 1.417969 3.074219 1.539062 L 12.464844 6.238281 C 12.707031 6.359375 12.949219 6.378906 13.152344 6.179688 C 13.355469 5.976562 13.457031 5.773438 13.394531 5.488281 C 13.152344 4.761719 13.335938 4.09375 13.820312 3.527344 L 17.179688 -0.0546875 C 17.527344 -0.4375 17.949219 -0.679688 18.4375 -0.742188 C 18.882812 -0.820312 19.367188 -0.78125 19.851562 -0.539062 L 27.824219 3.453125 C 28.269531 3.675781 28.59375 4.039062 28.835938 4.464844 C 29.039062 4.871094 29.097656 5.355469 29.039062 5.882812 L 28.144531 10.695312 C 27.984375 11.425781 27.539062 11.910156 26.890625 12.195312 L 26.871094 12.234375 C 26.585938 12.394531 26.484375 12.597656 26.503906 12.863281 C 26.464844 13.144531 26.625 13.328125 26.910156 13.46875 L 27.558594 13.792969 L 36.214844 18.128906 C 36.417969 18.230469 36.601562 18.269531 36.804688 18.167969 C 37.007812 18.066406 37.128906 17.925781 37.1875 17.703125 Z M 30.460938 -5.25 L 25.238281 -7.863281 C 25.078125 -7.941406 24.976562 -8.042969 24.957031 -8.207031 C 24.894531 -8.386719 24.9375 -8.570312 25.097656 -8.691406 L 32.246094 -16.398438 C 32.386719 -16.582031 32.570312 -16.640625 32.8125 -16.519531 C 33.054688 -16.398438 33.113281 -16.214844 33.09375 -15.972656 L 31.167969 -5.652344 C 31.128906 -5.472656 31.003906 -5.328125 30.863281 -5.25 C 30.722656 -5.167969 30.582031 -5.1875 30.460938 -5.25 Z M 30.460938 -5.25 "/></g></g></g><g fill="#ffc1b2" fill-opacity="0.502"><g transform="translate(157.340168, 162.191574)"><g><path d="M 48.414062 -13.617188 L 48.332031 -13.964844 C 48.050781 -14.8125 48.007812 -15.644531 48.128906 -16.492188 C 48.535156 -19.125 47.972656 -21.734375 46.515625 -24.285156 C 45.6875 -25.660156 44.613281 -26.957031 43.277344 -28.132812 C 41.945312 -29.304688 40.46875 -30.296875 38.765625 -31.148438 C 37.066406 -32 35.289062 -32.585938 33.507812 -32.972656 C 31.726562 -33.355469 30.003906 -33.460938 28.367188 -33.316406 C 26.140625 -33.117188 24.257812 -32.492188 22.617188 -31.4375 C 20.980469 -30.386719 19.765625 -28.972656 18.871094 -27.191406 C 17.171875 -23.792969 17.292969 -20.089844 19.332031 -16.082031 C 20.019531 -14.621094 20.871094 -13.285156 21.882812 -11.972656 C 22.894531 -10.65625 23.945312 -9.320312 25.035156 -8.0625 C 25.644531 -7.253906 26.332031 -6.402344 27.019531 -5.554688 C 27.707031 -4.703125 28.292969 -3.851562 28.820312 -3.082031 C 29.324219 -2.273438 29.707031 -1.523438 29.972656 -0.835938 C 30.214844 -0.109375 30.234375 0.457031 30.011719 0.902344 C 29.726562 1.46875 29.261719 1.894531 28.65625 2.097656 C 28.046875 2.296875 27.339844 2.398438 26.609375 2.339844 C 25.882812 2.277344 25.132812 2.15625 24.34375 1.914062 C 23.535156 1.710938 22.867188 1.425781 22.21875 1.101562 C 21.410156 0.695312 20.640625 0.210938 19.851562 -0.4375 C 19.042969 -1.042969 18.4375 -1.753906 18.050781 -2.5 C 17.953125 -2.703125 17.910156 -2.925781 18.011719 -3.128906 C 18.074219 -3.351562 18.195312 -3.492188 18.4375 -3.574219 L 18.5 -3.59375 C 18.722656 -3.734375 18.820312 -3.9375 18.863281 -4.222656 C 18.863281 -4.523438 18.722656 -4.746094 18.480469 -4.871094 L 9.535156 -9.34375 C 9.253906 -9.488281 8.988281 -9.46875 8.785156 -9.265625 C 8.542969 -9.082031 8.441406 -8.878906 8.503906 -8.597656 L 8.585938 -8.355469 C 8.828125 -7.421875 8.847656 -6.554688 8.746094 -5.742188 C 8.296875 -3.03125 8.824219 -0.441406 10.378906 2.109375 C 11.191406 3.527344 12.300781 4.84375 13.636719 6.015625 C 14.953125 7.230469 16.511719 8.265625 18.210938 9.113281 C 20.234375 10.128906 22.277344 10.796875 24.300781 11.101562 C 26.324219 11.40625 28.207031 11.386719 29.964844 11 C 31.707031 10.660156 33.285156 9.929688 34.703125 8.917969 C 36.078125 7.886719 37.191406 6.574219 38.023438 4.914062 C 38.894531 3.171875 39.257812 1.433594 39.136719 -0.246094 C 39.019531 -1.925781 38.613281 -3.546875 37.886719 -5.125 C 37.15625 -6.703125 36.269531 -8.160156 35.175781 -9.617188 C 34.082031 -11.074219 32.992188 -12.433594 31.941406 -13.769531 C 31.210938 -14.636719 30.484375 -15.507812 29.777344 -16.417969 C 29.046875 -17.289062 28.421875 -18.160156 27.933594 -19.011719 C 27.429688 -19.820312 27.066406 -20.609375 26.824219 -21.339844 C 26.582031 -22.066406 26.621094 -22.652344 26.882812 -23.179688 C 27.109375 -23.625 27.472656 -23.949219 28.078125 -24.152344 C 28.644531 -24.375 29.292969 -24.453125 30.042969 -24.433594 C 30.730469 -24.394531 31.519531 -24.25 32.371094 -24.027344 C 33.179688 -23.824219 33.988281 -23.519531 34.757812 -23.136719 C 35.648438 -22.691406 36.476562 -22.125 37.203125 -21.558594 C 37.914062 -20.949219 38.417969 -20.34375 38.804688 -19.695312 C 38.902344 -19.492188 38.945312 -19.269531 38.84375 -19.066406 C 38.742188 -18.863281 38.621094 -18.722656 38.4375 -18.664062 L 38.417969 -18.621094 C 38.132812 -18.460938 38.035156 -18.257812 38.054688 -17.996094 C 38.011719 -17.710938 38.175781 -17.527344 38.457031 -17.386719 L 47.402344 -12.910156 C 47.644531 -12.789062 47.886719 -12.769531 48.128906 -12.953125 C 48.3125 -13.113281 48.414062 -13.316406 48.414062 -13.617188 Z M 48.414062 -13.617188 "/></g></g></g><g fill="#ffc1b2" fill-opacity="0.502"><g transform="translate(193.961103, 180.521597)"><g><path d="M 52.324219 -25.375 L 52.261719 -25.355469 C 51.210938 -25.070312 50.238281 -25.152344 49.308594 -25.621094 L 28.507812 -36.03125 C 27.539062 -36.515625 26.890625 -37.246094 26.488281 -38.257812 L 26.507812 -38.296875 C 26.324219 -38.539062 26.121094 -38.640625 25.820312 -38.640625 C 25.515625 -38.640625 25.351562 -38.519531 25.230469 -38.277344 L 20.734375 -29.292969 C 20.59375 -29.011719 20.574219 -28.769531 20.777344 -28.566406 C 20.957031 -28.324219 21.160156 -28.222656 21.484375 -28.261719 C 22.535156 -28.542969 23.527344 -28.503906 24.5 -28.019531 L 30.082031 -25.222656 C 30.285156 -25.121094 30.445312 -24.9375 30.527344 -24.695312 C 30.609375 -24.453125 30.589844 -24.210938 30.488281 -24.007812 L 16.550781 3.832031 C 16.066406 4.804688 15.316406 5.492188 14.324219 5.855469 L 14.265625 5.875 C 13.980469 6.035156 13.878906 6.238281 13.878906 6.542969 C 13.839844 6.824219 14 7.007812 14.285156 7.148438 L 23.269531 11.644531 C 23.511719 11.769531 23.710938 11.769531 23.957031 11.585938 C 24.199219 11.402344 24.300781 11.203125 24.300781 10.898438 C 23.976562 9.824219 24.058594 8.855469 24.542969 7.882812 L 38.5 -19.996094 C 38.601562 -20.199219 38.78125 -20.363281 39.027344 -20.441406 C 39.269531 -20.523438 39.472656 -20.523438 39.714844 -20.402344 L 45.296875 -17.605469 C 46.269531 -17.121094 46.894531 -16.351562 47.261719 -15.359375 L 47.300781 -15.339844 C 47.421875 -15.078125 47.625 -14.976562 47.929688 -14.976562 C 48.210938 -14.933594 48.433594 -15.078125 48.574219 -15.359375 L 53.070312 -24.34375 C 53.195312 -24.585938 53.152344 -24.808594 52.972656 -25.050781 C 52.789062 -25.292969 52.585938 -25.394531 52.324219 -25.375 Z M 52.324219 -25.375 "/></g></g></g><g fill="#ffc1b2" fill-opacity="0.502"><g transform="translate(231.51275, 199.317473)"><g><path d="M 37.1875 17.703125 C 37.269531 17.542969 37.25 17.378906 37.167969 17.238281 C 36.621094 16.003906 36.5 14.726562 36.785156 13.351562 L 43.84375 -24.914062 C 43.964844 -25.660156 44.390625 -26.207031 45.121094 -26.449219 C 45.34375 -26.59375 45.445312 -26.792969 45.484375 -27.078125 C 45.484375 -27.382812 45.34375 -27.605469 45.101562 -27.726562 L 34.417969 -33.074219 C 34.175781 -33.195312 33.910156 -33.175781 33.667969 -32.992188 C 33.425781 -32.808594 33.324219 -32.609375 33.382812 -32.324219 C 33.628906 -31.597656 33.445312 -30.929688 32.917969 -30.382812 L 6.539062 -1.738281 C 5.644531 -0.765625 4.511719 -0.121094 3.175781 0.222656 C 2.996094 0.285156 2.851562 0.367188 2.792969 0.488281 C 2.652344 0.667969 2.609375 0.851562 2.652344 1.074219 C 2.691406 1.296875 2.832031 1.417969 3.074219 1.539062 L 12.464844 6.238281 C 12.707031 6.359375 12.949219 6.378906 13.152344 6.179688 C 13.355469 5.976562 13.457031 5.773438 13.394531 5.488281 C 13.152344 4.761719 13.335938 4.09375 13.820312 3.527344 L 17.179688 -0.0546875 C 17.527344 -0.4375 17.949219 -0.679688 18.4375 -0.742188 C 18.882812 -0.820312 19.367188 -0.78125 19.851562 -0.539062 L 27.824219 3.453125 C 28.269531 3.675781 28.59375 4.039062 28.835938 4.464844 C 29.039062 4.871094 29.097656 5.355469 29.039062 5.882812 L 28.144531 10.695312 C 27.984375 11.425781 27.539062 11.910156 26.890625 12.195312 L 26.871094 12.234375 C 26.585938 12.394531 26.484375 12.597656 26.503906 12.863281 C 26.464844 13.144531 26.625 13.328125 26.910156 13.46875 L 27.558594 13.792969 L 36.214844 18.128906 C 36.417969 18.230469 36.601562 18.269531 36.804688 18.167969 C 37.007812 18.066406 37.128906 17.925781 37.1875 17.703125 Z M 30.460938 -5.25 L 25.238281 -7.863281 C 25.078125 -7.941406 24.976562 -8.042969 24.957031 -8.207031 C 24.894531 -8.386719 24.9375 -8.570312 25.097656 -8.691406 L 32.246094 -16.398438 C 32.386719 -16.582031 32.570312 -16.640625 32.8125 -16.519531 C 33.054688 -16.398438 33.113281 -16.214844 33.09375 -15.972656 L 31.167969 -5.652344 C 31.128906 -5.472656 31.003906 -5.328125 30.863281 -5.25 C 30.722656 -5.167969 30.582031 -5.1875 30.460938 -5.25 Z M 30.460938 -5.25 "/></g></g></g><g fill="#ffc1b2" fill-opacity="0.502"><g transform="translate(270.804386, 218.984273)"><g><path d="M 38.21875 17.867188 L 38.199219 17.804688 C 37.875 16.832031 38 15.882812 38.484375 14.910156 L 55.132812 -18.351562 C 55.597656 -19.28125 56.289062 -19.949219 57.28125 -20.3125 L 57.339844 -20.335938 C 57.5625 -20.476562 57.664062 -20.679688 57.703125 -20.960938 C 57.703125 -21.265625 57.5625 -21.488281 57.320312 -21.609375 L 48.378906 -26.085938 C 48.09375 -26.226562 47.832031 -26.207031 47.628906 -26.003906 C 47.386719 -25.824219 47.285156 -25.621094 47.34375 -25.335938 L 47.367188 -25.277344 C 47.628906 -24.285156 47.546875 -23.3125 47.082031 -22.382812 L 37.015625 -2.269531 C 36.933594 -2.109375 36.792969 -2.027344 36.609375 -2.070312 C 36.425781 -2.109375 36.328125 -2.210938 36.328125 -2.414062 L 34.316406 -30.039062 C 34.234375 -30.683594 34.558594 -31.128906 35.207031 -31.414062 C 35.429688 -31.554688 35.53125 -31.757812 35.570312 -32.039062 C 35.570312 -32.34375 35.429688 -32.566406 35.1875 -32.6875 L 34.09375 -33.234375 L 34.074219 -33.195312 L 34.09375 -33.234375 L 26.082031 -37.246094 L 25.636719 -37.46875 C 25.351562 -37.609375 25.089844 -37.589844 24.886719 -37.386719 C 24.644531 -37.207031 24.542969 -37.003906 24.605469 -36.71875 C 24.886719 -35.667969 24.804688 -34.695312 24.359375 -33.804688 L 7.671875 -0.460938 C 7.203125 0.46875 6.476562 1.117188 5.484375 1.480469 C 5.199219 1.640625 5.097656 1.84375 5.097656 2.148438 C 5.058594 2.429688 5.21875 2.613281 5.503906 2.753906 L 14.445312 7.230469 C 14.6875 7.351562 14.933594 7.371094 15.175781 7.191406 C 15.378906 6.988281 15.476562 6.785156 15.480469 6.484375 L 15.4375 6.359375 C 15.113281 5.390625 15.238281 4.4375 15.722656 3.46875 L 25.769531 -16.605469 C 25.851562 -16.765625 25.929688 -16.828125 26.113281 -16.785156 C 26.296875 -16.746094 26.394531 -16.644531 26.457031 -16.460938 L 28.488281 11.222656 C 28.46875 11.871094 28.183594 12.335938 27.617188 12.558594 C 27.335938 12.71875 27.234375 12.921875 27.234375 13.226562 C 27.191406 13.507812 27.355469 13.691406 27.636719 13.832031 L 28.691406 14.359375 L 36.742188 18.390625 L 37.1875 18.613281 C 37.429688 18.734375 37.671875 18.753906 37.917969 18.574219 C 38.117188 18.371094 38.21875 18.167969 38.21875 17.867188 Z M 38.21875 17.867188 "/></g></g></g><g fill="#ffc1b2" fill-opacity="0.502"><g transform="translate(313.495098, 240.352426)"><g><path d="M 49.734375 -25.761719 C 48.722656 -25.457031 47.769531 -25.578125 46.878906 -26.023438 L 25.3125 -36.820312 C 25.027344 -36.960938 24.765625 -36.941406 24.5625 -36.738281 C 24.320312 -36.558594 24.21875 -36.355469 24.28125 -36.074219 L 24.339844 -35.890625 C 24.625 -34.835938 24.523438 -33.824219 24.035156 -32.855469 L 7.589844 0.00390625 C 7.347656 0.488281 7.042969 0.894531 6.65625 1.257812 C 6.273438 1.621094 5.828125 1.90625 5.339844 2.066406 L 5.160156 2.128906 C 4.875 2.289062 4.773438 2.492188 4.773438 2.792969 C 4.734375 3.078125 4.894531 3.261719 5.179688 3.402344 L 26.746094 14.199219 C 27.636719 14.644531 28.285156 15.371094 28.667969 16.324219 C 28.769531 16.625 28.992188 16.789062 29.296875 16.789062 C 29.578125 16.828125 29.84375 16.707031 30.003906 16.382812 L 34.519531 7.359375 C 34.644531 7.117188 34.621094 6.855469 34.441406 6.613281 C 34.238281 6.410156 33.976562 6.328125 33.734375 6.410156 C 32.660156 6.734375 31.648438 6.632812 30.675781 6.144531 L 18.78125 0.191406 C 18.496094 0.046875 18.292969 -0.152344 18.191406 -0.457031 C 18.070312 -0.722656 18.113281 -1.003906 18.273438 -1.328125 L 21.3125 -7.398438 C 21.453125 -7.679688 21.65625 -7.882812 21.960938 -7.984375 C 22.242188 -8.042969 22.546875 -8.042969 22.832031 -7.902344 L 26.390625 -6.121094 C 27.363281 -5.632812 28.03125 -4.84375 28.433594 -3.832031 C 28.554688 -3.570312 28.757812 -3.46875 29.0625 -3.46875 C 29.367188 -3.46875 29.589844 -3.609375 29.710938 -3.851562 L 34.207031 -12.835938 C 34.328125 -13.078125 34.289062 -13.300781 34.105469 -13.542969 C 33.921875 -13.789062 33.722656 -13.886719 33.457031 -13.867188 C 32.386719 -13.546875 31.375 -13.648438 30.402344 -14.132812 L 26.839844 -15.914062 C 26.558594 -16.058594 26.355469 -16.257812 26.253906 -16.5625 C 26.132812 -16.824219 26.175781 -17.109375 26.335938 -17.433594 L 29.375 -23.503906 C 29.515625 -23.785156 29.71875 -23.988281 30.023438 -24.089844 C 30.304688 -24.148438 30.609375 -24.148438 30.890625 -24.007812 L 42.789062 -18.054688 C 43.761719 -17.566406 44.425781 -16.777344 44.832031 -15.765625 C 44.890625 -15.484375 45.113281 -15.320312 45.417969 -15.320312 C 45.703125 -15.28125 45.925781 -15.421875 46.066406 -15.703125 L 50.601562 -24.769531 C 50.726562 -25.011719 50.664062 -25.296875 50.480469 -25.539062 C 50.28125 -25.742188 50.015625 -25.820312 49.734375 -25.761719 Z M 49.734375 -25.761719 "/></g></g></g><g fill="#ffffff" fill-opacity="1"><g transform="translate(8.381696, 88.201286)"><g><path d="M 46.636719 -20.886719 C 46.109375 -23.070312 45.140625 -25.074219 43.785156 -26.816406 C 42.367188 -28.535156 40.609375 -29.972656 38.503906 -31.027344 L 25.59375 -37.488281 C 25.3125 -37.628906 25.050781 -37.609375 24.847656 -37.40625 C 24.605469 -37.226562 24.542969 -37.003906 24.644531 -36.699219 C 24.96875 -35.527344 24.886719 -34.351562 24.339844 -33.257812 L 8.09375 -0.804688 C 7.527344 0.328125 6.65625 1.054688 5.523438 1.5 C 5.199219 1.640625 5.058594 1.824219 5.058594 2.128906 C 5.019531 2.410156 5.179688 2.59375 5.460938 2.734375 L 14.609375 7.3125 C 14.851562 7.433594 15.09375 7.453125 15.296875 7.25 C 15.5 7.050781 15.601562 6.847656 15.558594 6.523438 C 15.277344 5.570312 15.359375 4.703125 15.761719 3.890625 L 18.71875 -2.015625 C 18.921875 -2.421875 19.226562 -2.722656 19.710938 -2.886719 C 20.136719 -3.027344 20.582031 -3.007812 21.027344 -2.785156 L 23.699219 -1.445312 C 25.800781 -0.394531 27.988281 0.195312 30.214844 0.296875 C 32.398438 0.378906 34.585938 -0.046875 36.671875 -0.976562 C 38.429688 -1.765625 40.050781 -2.875 41.46875 -4.292969 C 42.886719 -5.707031 44.101562 -7.328125 45.03125 -9.1875 C 45.964844 -11.050781 46.550781 -13.03125 46.835938 -15.015625 C 47.121094 -17 47.039062 -18.960938 46.636719 -20.886719 Z M 33.03125 -9.171875 C 31.371094 -8.386719 29.609375 -8.507812 27.707031 -9.460938 L 24.632812 -11 C 24.308594 -11.160156 24.105469 -11.363281 23.984375 -11.726562 C 23.84375 -12.050781 23.886719 -12.335938 24.046875 -12.65625 L 29.71875 -23.988281 C 29.859375 -24.273438 30.0625 -24.472656 30.425781 -24.59375 C 30.792969 -24.714844 31.09375 -24.714844 31.417969 -24.554688 L 34.492188 -23.015625 C 35.949219 -22.285156 36.882812 -21.414062 37.367188 -20.363281 C 37.851562 -19.308594 38.054688 -18.296875 38.054688 -17.285156 C 38.011719 -16.292969 37.871094 -15.40625 37.585938 -14.636719 C 37.304688 -13.867188 37.101562 -13.359375 37.019531 -13.199219 C 36.53125 -12.226562 35.925781 -11.417969 35.277344 -10.730469 C 34.589844 -10.0625 33.820312 -9.539062 33.03125 -9.171875 Z M 33.03125 -9.171875 "/></g></g></g><g fill="#ffffff" fill-opacity="1"><g transform="translate(43.991007, 106.024957)"><g><path d="M 37.1875 17.703125 C 37.269531 17.542969 37.25 17.378906 37.167969 17.238281 C 36.621094 16.003906 36.5 14.726562 36.785156 13.351562 L 43.84375 -24.914062 C 43.964844 -25.660156 44.390625 -26.207031 45.121094 -26.449219 C 45.34375 -26.59375 45.445312 -26.792969 45.484375 -27.078125 C 45.484375 -27.382812 45.34375 -27.605469 45.101562 -27.726562 L 34.417969 -33.074219 C 34.175781 -33.195312 33.910156 -33.175781 33.667969 -32.992188 C 33.425781 -32.808594 33.324219 -32.609375 33.382812 -32.324219 C 33.628906 -31.597656 33.445312 -30.929688 32.917969 -30.382812 L 6.539062 -1.738281 C 5.644531 -0.765625 4.511719 -0.121094 3.175781 0.222656 C 2.996094 0.285156 2.851562 0.367188 2.792969 0.488281 C 2.652344 0.667969 2.609375 0.851562 2.652344 1.074219 C 2.691406 1.296875 2.832031 1.417969 3.074219 1.539062 L 12.464844 6.238281 C 12.707031 6.359375 12.949219 6.378906 13.152344 6.179688 C 13.355469 5.976562 13.457031 5.773438 13.394531 5.488281 C 13.152344 4.761719 13.335938 4.09375 13.820312 3.527344 L 17.179688 -0.0546875 C 17.527344 -0.4375 17.949219 -0.679688 18.4375 -0.742188 C 18.882812 -0.820312 19.367188 -0.78125 19.851562 -0.539062 L 27.824219 3.453125 C 28.269531 3.675781 28.59375 4.039062 28.835938 4.464844 C 29.039062 4.871094 29.097656 5.355469 29.039062 5.882812 L 28.144531 10.695312 C 27.984375 11.425781 27.539062 11.910156 26.890625 12.195312 L 26.871094 12.234375 C 26.585938 12.394531 26.484375 12.597656 26.503906 12.863281 C 26.464844 13.144531 26.625 13.328125 26.910156 13.46875 L 27.558594 13.792969 L 36.214844 18.128906 C 36.417969 18.230469 36.601562 18.269531 36.804688 18.167969 C 37.007812 18.066406 37.128906 17.925781 37.1875 17.703125 Z M 30.460938 -5.25 L 25.238281 -7.863281 C 25.078125 -7.941406 24.976562 -8.042969 24.957031 -8.207031 C 24.894531 -8.386719 24.9375 -8.570312 25.097656 -8.691406 L 32.246094 -16.398438 C 32.386719 -16.582031 32.570312 -16.640625 32.8125 -16.519531 C 33.054688 -16.398438 33.113281 -16.214844 33.09375 -15.972656 L 31.167969 -5.652344 C 31.128906 -5.472656 31.003906 -5.328125 30.863281 -5.25 C 30.722656 -5.167969 30.582031 -5.1875 30.460938 -5.25 Z M 30.460938 -5.25 "/></g></g></g><g fill="#ffffff" fill-opacity="1"><g transform="translate(83.282644, 125.691757)"><g><path d="M 46.636719 -20.886719 C 46.109375 -23.070312 45.140625 -25.074219 43.785156 -26.816406 C 42.367188 -28.535156 40.609375 -29.972656 38.503906 -31.027344 L 25.59375 -37.488281 C 25.3125 -37.628906 25.050781 -37.609375 24.847656 -37.40625 C 24.605469 -37.226562 24.542969 -37.003906 24.644531 -36.699219 C 24.96875 -35.527344 24.886719 -34.351562 24.339844 -33.257812 L 8.09375 -0.804688 C 7.527344 0.328125 6.65625 1.054688 5.523438 1.5 C 5.199219 1.640625 5.058594 1.824219 5.058594 2.128906 C 5.019531 2.410156 5.179688 2.59375 5.460938 2.734375 L 14.609375 7.3125 C 14.851562 7.433594 15.09375 7.453125 15.296875 7.25 C 15.5 7.050781 15.601562 6.847656 15.558594 6.523438 C 15.277344 5.570312 15.359375 4.703125 15.761719 3.890625 L 18.71875 -2.015625 C 18.921875 -2.421875 19.226562 -2.722656 19.710938 -2.886719 C 20.136719 -3.027344 20.582031 -3.007812 21.027344 -2.785156 L 23.699219 -1.445312 C 25.800781 -0.394531 27.988281 0.195312 30.214844 0.296875 C 32.398438 0.378906 34.585938 -0.046875 36.671875 -0.976562 C 38.429688 -1.765625 40.050781 -2.875 41.46875 -4.292969 C 42.886719 -5.707031 44.101562 -7.328125 45.03125 -9.1875 C 45.964844 -11.050781 46.550781 -13.03125 46.835938 -15.015625 C 47.121094 -17 47.039062 -18.960938 46.636719 -20.886719 Z M 33.03125 -9.171875 C 31.371094 -8.386719 29.609375 -8.507812 27.707031 -9.460938 L 24.632812 -11 C 24.308594 -11.160156 24.105469 -11.363281 23.984375 -11.726562 C 23.84375 -12.050781 23.886719 -12.335938 24.046875 -12.65625 L 29.71875 -23.988281 C 29.859375 -24.273438 30.0625 -24.472656 30.425781 -24.59375 C 30.792969 -24.714844 31.09375 -24.714844 31.417969 -24.554688 L 34.492188 -23.015625 C 35.949219 -22.285156 36.882812 -21.414062 37.367188 -20.363281 C 37.851562 -19.308594 38.054688 -18.296875 38.054688 -17.285156 C 38.011719 -16.292969 37.871094 -15.40625 37.585938 -14.636719 C 37.304688 -13.867188 37.101562 -13.359375 37.019531 -13.199219 C 36.53125 -12.226562 35.925781 -11.417969 35.277344 -10.730469 C 34.589844 -10.0625 33.820312 -9.539062 33.03125 -9.171875 Z M 33.03125 -9.171875 "/></g></g></g><g fill="#ffffff" fill-opacity="1"><g transform="translate(118.891955, 143.515429)"><g><path d="M 37.1875 17.703125 C 37.269531 17.542969 37.25 17.378906 37.167969 17.238281 C 36.621094 16.003906 36.5 14.726562 36.785156 13.351562 L 43.84375 -24.914062 C 43.964844 -25.660156 44.390625 -26.207031 45.121094 -26.449219 C 45.34375 -26.59375 45.445312 -26.792969 45.484375 -27.078125 C 45.484375 -27.382812 45.34375 -27.605469 45.101562 -27.726562 L 34.417969 -33.074219 C 34.175781 -33.195312 33.910156 -33.175781 33.667969 -32.992188 C 33.425781 -32.808594 33.324219 -32.609375 33.382812 -32.324219 C 33.628906 -31.597656 33.445312 -30.929688 32.917969 -30.382812 L 6.539062 -1.738281 C 5.644531 -0.765625 4.511719 -0.121094 3.175781 0.222656 C 2.996094 0.285156 2.851562 0.367188 2.792969 0.488281 C 2.652344 0.667969 2.609375 0.851562 2.652344 1.074219 C 2.691406 1.296875 2.832031 1.417969 3.074219 1.539062 L 12.464844 6.238281 C 12.707031 6.359375 12.949219 6.378906 13.152344 6.179688 C 13.355469 5.976562 13.457031 5.773438 13.394531 5.488281 C 13.152344 4.761719 13.335938 4.09375 13.820312 3.527344 L 17.179688 -0.0546875 C 17.527344 -0.4375 17.949219 -0.679688 18.4375 -0.742188 C 18.882812 -0.820312 19.367188 -0.78125 19.851562 -0.539062 L 27.824219 3.453125 C 28.269531 3.675781 28.59375 4.039062 28.835938 4.464844 C 29.039062 4.871094 29.097656 5.355469 29.039062 5.882812 L 28.144531 10.695312 C 27.984375 11.425781 27.539062 11.910156 26.890625 12.195312 L 26.871094 12.234375 C 26.585938 12.394531 26.484375 12.597656 26.503906 12.863281 C 26.464844 13.144531 26.625 13.328125 26.910156 13.46875 L 27.558594 13.792969 L 36.214844 18.128906 C 36.417969 18.230469 36.601562 18.269531 36.804688 18.167969 C 37.007812 18.066406 37.128906 17.925781 37.1875 17.703125 Z M 30.460938 -5.25 L 25.238281 -7.863281 C 25.078125 -7.941406 24.976562 -8.042969 24.957031 -8.207031 C 24.894531 -8.386719 24.9375 -8.570312 25.097656 -8.691406 L 32.246094 -16.398438 C 32.386719 -16.582031 32.570312 -16.640625 32.8125 -16.519531 C 33.054688 -16.398438 33.113281 -16.214844 33.09375 -15.972656 L 31.167969 -5.652344 C 31.128906 -5.472656 31.003906 -5.328125 30.863281 -5.25 C 30.722656 -5.167969 30.582031 -5.1875 30.460938 -5.25 Z M 30.460938 -5.25 "/></g></g></g><g fill="#ffffff" fill-opacity="1"><g transform="translate(158.183592, 163.182229)"><g><path d="M 48.414062 -13.617188 L 48.332031 -13.964844 C 48.050781 -14.8125 48.007812 -15.644531 48.128906 -16.492188 C 48.535156 -19.125 47.972656 -21.734375 46.515625 -24.285156 C 45.6875 -25.660156 44.613281 -26.957031 43.277344 -28.132812 C 41.945312 -29.304688 40.46875 -30.296875 38.765625 -31.148438 C 37.066406 -32 35.289062 -32.585938 33.507812 -32.972656 C 31.726562 -33.355469 30.003906 -33.460938 28.367188 -33.316406 C 26.140625 -33.117188 24.257812 -32.492188 22.617188 -31.4375 C 20.980469 -30.386719 19.765625 -28.972656 18.871094 -27.191406 C 17.171875 -23.792969 17.292969 -20.089844 19.332031 -16.082031 C 20.019531 -14.621094 20.871094 -13.285156 21.882812 -11.972656 C 22.894531 -10.65625 23.945312 -9.320312 25.035156 -8.0625 C 25.644531 -7.253906 26.332031 -6.402344 27.019531 -5.554688 C 27.707031 -4.703125 28.292969 -3.851562 28.820312 -3.082031 C 29.324219 -2.273438 29.707031 -1.523438 29.972656 -0.835938 C 30.214844 -0.109375 30.234375 0.457031 30.011719 0.902344 C 29.726562 1.46875 29.261719 1.894531 28.65625 2.097656 C 28.046875 2.296875 27.339844 2.398438 26.609375 2.339844 C 25.882812 2.277344 25.132812 2.15625 24.34375 1.914062 C 23.535156 1.710938 22.867188 1.425781 22.21875 1.101562 C 21.410156 0.695312 20.640625 0.210938 19.851562 -0.4375 C 19.042969 -1.042969 18.4375 -1.753906 18.050781 -2.5 C 17.953125 -2.703125 17.910156 -2.925781 18.011719 -3.128906 C 18.074219 -3.351562 18.195312 -3.492188 18.4375 -3.574219 L 18.5 -3.59375 C 18.722656 -3.734375 18.820312 -3.9375 18.863281 -4.222656 C 18.863281 -4.523438 18.722656 -4.746094 18.480469 -4.871094 L 9.535156 -9.34375 C 9.253906 -9.488281 8.988281 -9.46875 8.785156 -9.265625 C 8.542969 -9.082031 8.441406 -8.878906 8.503906 -8.597656 L 8.585938 -8.355469 C 8.828125 -7.421875 8.847656 -6.554688 8.746094 -5.742188 C 8.296875 -3.03125 8.824219 -0.441406 10.378906 2.109375 C 11.191406 3.527344 12.300781 4.84375 13.636719 6.015625 C 14.953125 7.230469 16.511719 8.265625 18.210938 9.113281 C 20.234375 10.128906 22.277344 10.796875 24.300781 11.101562 C 26.324219 11.40625 28.207031 11.386719 29.964844 11 C 31.707031 10.660156 33.285156 9.929688 34.703125 8.917969 C 36.078125 7.886719 37.191406 6.574219 38.023438 4.914062 C 38.894531 3.171875 39.257812 1.433594 39.136719 -0.246094 C 39.019531 -1.925781 38.613281 -3.546875 37.886719 -5.125 C 37.15625 -6.703125 36.269531 -8.160156 35.175781 -9.617188 C 34.082031 -11.074219 32.992188 -12.433594 31.941406 -13.769531 C 31.210938 -14.636719 30.484375 -15.507812 29.777344 -16.417969 C 29.046875 -17.289062 28.421875 -18.160156 27.933594 -19.011719 C 27.429688 -19.820312 27.066406 -20.609375 26.824219 -21.339844 C 26.582031 -22.066406 26.621094 -22.652344 26.882812 -23.179688 C 27.109375 -23.625 27.472656 -23.949219 28.078125 -24.152344 C 28.644531 -24.375 29.292969 -24.453125 30.042969 -24.433594 C 30.730469 -24.394531 31.519531 -24.25 32.371094 -24.027344 C 33.179688 -23.824219 33.988281 -23.519531 34.757812 -23.136719 C 35.648438 -22.691406 36.476562 -22.125 37.203125 -21.558594 C 37.914062 -20.949219 38.417969 -20.34375 38.804688 -19.695312 C 38.902344 -19.492188 38.945312 -19.269531 38.84375 -19.066406 C 38.742188 -18.863281 38.621094 -18.722656 38.4375 -18.664062 L 38.417969 -18.621094 C 38.132812 -18.460938 38.035156 -18.257812 38.054688 -17.996094 C 38.011719 -17.710938 38.175781 -17.527344 38.457031 -17.386719 L 47.402344 -12.910156 C 47.644531 -12.789062 47.886719 -12.769531 48.128906 -12.953125 C 48.3125 -13.113281 48.414062 -13.316406 48.414062 -13.617188 Z M 48.414062 -13.617188 "/></g></g></g><g fill="#ffffff" fill-opacity="1"><g transform="translate(194.804527, 181.512252)"><g><path d="M 52.324219 -25.375 L 52.261719 -25.355469 C 51.210938 -25.070312 50.238281 -25.152344 49.308594 -25.621094 L 28.507812 -36.03125 C 27.539062 -36.515625 26.890625 -37.246094 26.488281 -38.257812 L 26.507812 -38.296875 C 26.324219 -38.539062 26.121094 -38.640625 25.820312 -38.640625 C 25.515625 -38.640625 25.351562 -38.519531 25.230469 -38.277344 L 20.734375 -29.292969 C 20.59375 -29.011719 20.574219 -28.769531 20.777344 -28.566406 C 20.957031 -28.324219 21.160156 -28.222656 21.484375 -28.261719 C 22.535156 -28.542969 23.527344 -28.503906 24.5 -28.019531 L 30.082031 -25.222656 C 30.285156 -25.121094 30.445312 -24.9375 30.527344 -24.695312 C 30.609375 -24.453125 30.589844 -24.210938 30.488281 -24.007812 L 16.550781 3.832031 C 16.066406 4.804688 15.316406 5.492188 14.324219 5.855469 L 14.265625 5.875 C 13.980469 6.035156 13.878906 6.238281 13.878906 6.542969 C 13.839844 6.824219 14 7.007812 14.285156 7.148438 L 23.269531 11.644531 C 23.511719 11.769531 23.710938 11.769531 23.957031 11.585938 C 24.199219 11.402344 24.300781 11.203125 24.300781 10.898438 C 23.976562 9.824219 24.058594 8.855469 24.542969 7.882812 L 38.5 -19.996094 C 38.601562 -20.199219 38.78125 -20.363281 39.027344 -20.441406 C 39.269531 -20.523438 39.472656 -20.523438 39.714844 -20.402344 L 45.296875 -17.605469 C 46.269531 -17.121094 46.894531 -16.351562 47.261719 -15.359375 L 47.300781 -15.339844 C 47.421875 -15.078125 47.625 -14.976562 47.929688 -14.976562 C 48.210938 -14.933594 48.433594 -15.078125 48.574219 -15.359375 L 53.070312 -24.34375 C 53.195312 -24.585938 53.152344 -24.808594 52.972656 -25.050781 C 52.789062 -25.292969 52.585938 -25.394531 52.324219 -25.375 Z M 52.324219 -25.375 "/></g></g></g><g fill="#ffffff" fill-opacity="1"><g transform="translate(232.356174, 200.308128)"><g><path d="M 37.1875 17.703125 C 37.269531 17.542969 37.25 17.378906 37.167969 17.238281 C 36.621094 16.003906 36.5 14.726562 36.785156 13.351562 L 43.84375 -24.914062 C 43.964844 -25.660156 44.390625 -26.207031 45.121094 -26.449219 C 45.34375 -26.59375 45.445312 -26.792969 45.484375 -27.078125 C 45.484375 -27.382812 45.34375 -27.605469 45.101562 -27.726562 L 34.417969 -33.074219 C 34.175781 -33.195312 33.910156 -33.175781 33.667969 -32.992188 C 33.425781 -32.808594 33.324219 -32.609375 33.382812 -32.324219 C 33.628906 -31.597656 33.445312 -30.929688 32.917969 -30.382812 L 6.539062 -1.738281 C 5.644531 -0.765625 4.511719 -0.121094 3.175781 0.222656 C 2.996094 0.285156 2.851562 0.367188 2.792969 0.488281 C 2.652344 0.667969 2.609375 0.851562 2.652344 1.074219 C 2.691406 1.296875 2.832031 1.417969 3.074219 1.539062 L 12.464844 6.238281 C 12.707031 6.359375 12.949219 6.378906 13.152344 6.179688 C 13.355469 5.976562 13.457031 5.773438 13.394531 5.488281 C 13.152344 4.761719 13.335938 4.09375 13.820312 3.527344 L 17.179688 -0.0546875 C 17.527344 -0.4375 17.949219 -0.679688 18.4375 -0.742188 C 18.882812 -0.820312 19.367188 -0.78125 19.851562 -0.539062 L 27.824219 3.453125 C 28.269531 3.675781 28.59375 4.039062 28.835938 4.464844 C 29.039062 4.871094 29.097656 5.355469 29.039062 5.882812 L 28.144531 10.695312 C 27.984375 11.425781 27.539062 11.910156 26.890625 12.195312 L 26.871094 12.234375 C 26.585938 12.394531 26.484375 12.597656 26.503906 12.863281 C 26.464844 13.144531 26.625 13.328125 26.910156 13.46875 L 27.558594 13.792969 L 36.214844 18.128906 C 36.417969 18.230469 36.601562 18.269531 36.804688 18.167969 C 37.007812 18.066406 37.128906 17.925781 37.1875 17.703125 Z M 30.460938 -5.25 L 25.238281 -7.863281 C 25.078125 -7.941406 24.976562 -8.042969 24.957031 -8.207031 C 24.894531 -8.386719 24.9375 -8.570312 25.097656 -8.691406 L 32.246094 -16.398438 C 32.386719 -16.582031 32.570312 -16.640625 32.8125 -16.519531 C 33.054688 -16.398438 33.113281 -16.214844 33.09375 -15.972656 L 31.167969 -5.652344 C 31.128906 -5.472656 31.003906 -5.328125 30.863281 -5.25 C 30.722656 -5.167969 30.582031 -5.1875 30.460938 -5.25 Z M 30.460938 -5.25 "/></g></g></g><g fill="#ffffff" fill-opacity="1"><g transform="translate(271.64781, 219.974929)"><g><path d="M 38.21875 17.867188 L 38.199219 17.804688 C 37.875 16.832031 38 15.882812 38.484375 14.910156 L 55.132812 -18.351562 C 55.597656 -19.28125 56.289062 -19.949219 57.28125 -20.3125 L 57.339844 -20.335938 C 57.5625 -20.476562 57.664062 -20.679688 57.703125 -20.960938 C 57.703125 -21.265625 57.5625 -21.488281 57.320312 -21.609375 L 48.378906 -26.085938 C 48.09375 -26.226562 47.832031 -26.207031 47.628906 -26.003906 C 47.386719 -25.824219 47.285156 -25.621094 47.34375 -25.335938 L 47.367188 -25.277344 C 47.628906 -24.285156 47.546875 -23.3125 47.082031 -22.382812 L 37.015625 -2.269531 C 36.933594 -2.109375 36.792969 -2.027344 36.609375 -2.070312 C 36.425781 -2.109375 36.328125 -2.210938 36.328125 -2.414062 L 34.316406 -30.039062 C 34.234375 -30.683594 34.558594 -31.128906 35.207031 -31.414062 C 35.429688 -31.554688 35.53125 -31.757812 35.570312 -32.039062 C 35.570312 -32.34375 35.429688 -32.566406 35.1875 -32.6875 L 34.09375 -33.234375 L 34.074219 -33.195312 L 34.09375 -33.234375 L 26.082031 -37.246094 L 25.636719 -37.46875 C 25.351562 -37.609375 25.089844 -37.589844 24.886719 -37.386719 C 24.644531 -37.207031 24.542969 -37.003906 24.605469 -36.71875 C 24.886719 -35.667969 24.804688 -34.695312 24.359375 -33.804688 L 7.671875 -0.460938 C 7.203125 0.46875 6.476562 1.117188 5.484375 1.480469 C 5.199219 1.640625 5.097656 1.84375 5.097656 2.148438 C 5.058594 2.429688 5.21875 2.613281 5.503906 2.753906 L 14.445312 7.230469 C 14.6875 7.351562 14.933594 7.371094 15.175781 7.191406 C 15.378906 6.988281 15.476562 6.785156 15.480469 6.484375 L 15.4375 6.359375 C 15.113281 5.390625 15.238281 4.4375 15.722656 3.46875 L 25.769531 -16.605469 C 25.851562 -16.765625 25.929688 -16.828125 26.113281 -16.785156 C 26.296875 -16.746094 26.394531 -16.644531 26.457031 -16.460938 L 28.488281 11.222656 C 28.46875 11.871094 28.183594 12.335938 27.617188 12.558594 C 27.335938 12.71875 27.234375 12.921875 27.234375 13.226562 C 27.191406 13.507812 27.355469 13.691406 27.636719 13.832031 L 28.691406 14.359375 L 36.742188 18.390625 L 37.1875 18.613281 C 37.429688 18.734375 37.671875 18.753906 37.917969 18.574219 C 38.117188 18.371094 38.21875 18.167969 38.21875 17.867188 Z M 38.21875 17.867188 "/></g></g></g><g fill="#ffffff" fill-opacity="1"><g transform="translate(314.338522, 241.343081)"><g><path d="M 49.734375 -25.761719 C 48.722656 -25.457031 47.769531 -25.578125 46.878906 -26.023438 L 25.3125 -36.820312 C 25.027344 -36.960938 24.765625 -36.941406 24.5625 -36.738281 C 24.320312 -36.558594 24.21875 -36.355469 24.28125 -36.074219 L 24.339844 -35.890625 C 24.625 -34.835938 24.523438 -33.824219 24.035156 -32.855469 L 7.589844 0.00390625 C 7.347656 0.488281 7.042969 0.894531 6.65625 1.257812 C 6.273438 1.621094 5.828125 1.90625 5.339844 2.066406 L 5.160156 2.128906 C 4.875 2.289062 4.773438 2.492188 4.773438 2.792969 C 4.734375 3.078125 4.894531 3.261719 5.179688 3.402344 L 26.746094 14.199219 C 27.636719 14.644531 28.285156 15.371094 28.667969 16.324219 C 28.769531 16.625 28.992188 16.789062 29.296875 16.789062 C 29.578125 16.828125 29.84375 16.707031 30.003906 16.382812 L 34.519531 7.359375 C 34.644531 7.117188 34.621094 6.855469 34.441406 6.613281 C 34.238281 6.410156 33.976562 6.328125 33.734375 6.410156 C 32.660156 6.734375 31.648438 6.632812 30.675781 6.144531 L 18.78125 0.191406 C 18.496094 0.046875 18.292969 -0.152344 18.191406 -0.457031 C 18.070312 -0.722656 18.113281 -1.003906 18.273438 -1.328125 L 21.3125 -7.398438 C 21.453125 -7.679688 21.65625 -7.882812 21.960938 -7.984375 C 22.242188 -8.042969 22.546875 -8.042969 22.832031 -7.902344 L 26.390625 -6.121094 C 27.363281 -5.632812 28.03125 -4.84375 28.433594 -3.832031 C 28.554688 -3.570312 28.757812 -3.46875 29.0625 -3.46875 C 29.367188 -3.46875 29.589844 -3.609375 29.710938 -3.851562 L 34.207031 -12.835938 C 34.328125 -13.078125 34.289062 -13.300781 34.105469 -13.542969 C 33.921875 -13.789062 33.722656 -13.886719 33.457031 -13.867188 C 32.386719 -13.546875 31.375 -13.648438 30.402344 -14.132812 L 26.839844 -15.914062 C 26.558594 -16.058594 26.355469 -16.257812 26.253906 -16.5625 C 26.132812 -16.824219 26.175781 -17.109375 26.335938 -17.433594 L 29.375 -23.503906 C 29.515625 -23.785156 29.71875 -23.988281 30.023438 -24.089844 C 30.304688 -24.148438 30.609375 -24.148438 30.890625 -24.007812 L 42.789062 -18.054688 C 43.761719 -17.566406 44.425781 -16.777344 44.832031 -15.765625 C 44.890625 -15.484375 45.113281 -15.320312 45.417969 -15.320312 C 45.703125 -15.28125 45.925781 -15.421875 46.066406 -15.703125 L 50.601562 -24.769531 C 50.726562 -25.011719 50.664062 -25.296875 50.480469 -25.539062 C 50.28125 -25.742188 50.015625 -25.820312 49.734375 -25.761719 Z M 49.734375 -25.761719 "/></g></g></g></svg>