<svg xmlns="http://www.w3.org/2000/svg" xmlns:xlink="http://www.w3.org/1999/xlink" width="640" zoomAndPan="magnify" viewBox="0 0 480 540.000001" height="720" preserveAspectRatio="xMidYMid meet" version="1.0"><defs><clipPath id="38a67c3b72"><path d="M 0.445312 0 L 479.554688 0 L 479.554688 539 L 0.445312 539 Z M 0.445312 0 " clip-rule="nonzero"/></clipPath><clipPath id="d68c2a6c0b"><path d="M 78.929688 25.488281 L 400.832031 25.488281 L 400.832031 347.390625 L 78.929688 347.390625 Z M 78.929688 25.488281 " clip-rule="nonzero"/></clipPath><clipPath id="3abcd1f72d"><path d="M 161 71.445312 L 319 71.445312 L 319 287.046875 L 161 287.046875 Z M 161 71.445312 " clip-rule="nonzero"/></clipPath></defs><g clip-path="url(#38a67c3b72)"><path fill="#ffffff" d="M 0.445312 0 L 479.554688 0 L 479.554688 539 L 0.445312 539 Z M 0.445312 0 " fill-opacity="1" fill-rule="nonzero"/><path fill="#e1abd1" d="M 0.445312 0 L 479.554688 0 L 479.554688 539 L 0.445312 539 Z M 0.445312 0 " fill-opacity="1" fill-rule="nonzero"/></g><g clip-path="url(#d68c2a6c0b)"><path fill="#fffaf9" d="M 78.929688 25.488281 L 401.066406 25.488281 L 401.066406 347.625 L 78.929688 347.625 Z M 94.96875 41.632812 L 384.921875 41.632812 L 384.921875 331.585938 L 94.96875 331.585938 Z M 94.96875 41.632812 " fill-opacity="1" fill-rule="evenodd"/></g><g clip-path="url(#3abcd1f72d)"><path fill="#fffaf9" d="M 316.566406 164.71875 C 316.03125 163.179688 315.339844 161.714844 314.492188 160.324219 C 313.644531 158.933594 312.664062 157.648438 311.546875 156.464844 C 310.429688 155.28125 309.199219 154.226562 307.859375 153.304688 C 306.519531 152.378906 305.097656 151.605469 303.59375 150.984375 C 303.449219 150.941406 303.304688 150.914062 303.152344 150.90625 C 302.414062 146.015625 300.539062 141.609375 297.535156 137.679688 C 292.503906 130.949219 284.367188 128.878906 280.375 128.25 C 280.898438 125.617188 281.042969 122.960938 280.816406 120.285156 C 280.585938 117.605469 279.992188 115.015625 279.03125 112.507812 C 278.601562 111.082031 277.992188 109.742188 277.203125 108.480469 C 276.414062 107.21875 275.476562 106.082031 274.382812 105.074219 C 273.289062 104.066406 272.085938 103.21875 270.765625 102.53125 C 269.445312 101.847656 268.058594 101.34375 266.605469 101.03125 C 265.621094 89.691406 251.300781 74.125 249.519531 72.230469 C 249.410156 72.113281 249.289062 72.015625 249.160156 71.929688 C 249.027344 71.847656 248.886719 71.78125 248.738281 71.730469 C 248.589844 71.679688 248.4375 71.652344 248.28125 71.640625 C 248.125 71.628906 247.96875 71.636719 247.816406 71.664062 C 247.660156 71.691406 247.511719 71.734375 247.367188 71.800781 C 247.226562 71.863281 247.09375 71.945312 246.96875 72.039062 C 246.847656 72.136719 246.738281 72.25 246.644531 72.371094 C 246.546875 72.496094 246.46875 72.632812 246.40625 72.773438 C 243.539062 79.300781 240.34375 85.65625 236.8125 91.847656 C 236.453125 89.988281 235.839844 88.21875 234.972656 86.539062 C 234.105469 84.855469 233.019531 83.328125 231.71875 81.957031 C 230.492188 80.636719 229.058594 79.609375 227.417969 78.875 C 225.773438 78.136719 224.054688 77.753906 222.253906 77.71875 C 213.277344 77.792969 211.558594 82 208.078125 84.097656 C 207.238281 81.644531 206.984375 79.136719 207.324219 76.566406 L 207.742188 73.808594 C 207.78125 73.558594 207.769531 73.3125 207.707031 73.070312 C 207.648438 72.828125 207.542969 72.605469 207.394531 72.40625 C 207.246094 72.203125 207.066406 72.039062 206.851562 71.910156 C 206.636719 71.777344 206.40625 71.695312 206.15625 71.65625 C 205.910156 71.621094 205.664062 71.632812 205.421875 71.691406 C 205.179688 71.75 204.957031 71.855469 204.753906 72.003906 C 204.554688 72.152344 204.386719 72.332031 204.257812 72.546875 C 204.128906 72.761719 204.042969 72.992188 204.007812 73.242188 L 203.585938 76 C 203.15625 79.207031 203.476562 82.34375 204.542969 85.402344 C 200.765625 85.980469 196.660156 84.492188 190.320312 90.316406 C 189 91.601562 187.988281 93.097656 187.289062 94.800781 C 186.585938 96.507812 186.257812 98.28125 186.296875 100.125 C 186.324219 101.570312 186.496094 103.003906 186.816406 104.417969 C 187.132812 105.832031 187.59375 107.199219 188.1875 108.519531 C 188.785156 109.839844 189.507812 111.085938 190.359375 112.257812 C 191.210938 113.433594 192.167969 114.507812 193.238281 115.484375 C 195.714844 117.835938 198.585938 119.519531 201.847656 120.535156 C 198.523438 122.574219 195.324219 124.453125 192.445312 126.050781 C 181.824219 131.953125 180.542969 144.453125 180.390625 147.640625 C 178.671875 148.308594 177.15625 149.292969 175.847656 150.597656 C 175.105469 151.550781 174.46875 152.570312 173.949219 153.664062 C 173.425781 154.753906 173.027344 155.886719 172.75 157.0625 C 172.472656 158.242188 172.328125 159.433594 172.308594 160.644531 C 172.292969 161.851562 172.40625 163.050781 172.648438 164.234375 C 171.476562 164.289062 170.382812 164.605469 169.359375 165.183594 C 162.839844 169.371094 160.652344 178.292969 161.890625 184.589844 L 161.894531 184.605469 L 161.898438 184.644531 L 161.902344 184.652344 L 161.902344 184.660156 L 180.355469 273.230469 C 180.855469 283.359375 215.796875 287.046875 239.335938 287.046875 C 262.867188 287.046875 297.789062 283.363281 298.316406 273.242188 C 305.027344 242.671875 315.925781 192.449219 316.734375 184.839844 C 317.351562 183.230469 317.8125 181.578125 318.117188 179.886719 C 318.421875 178.191406 318.566406 176.484375 318.554688 174.761719 C 318.539062 173.039062 318.367188 171.335938 318.03125 169.644531 C 317.699219 167.957031 317.210938 166.3125 316.566406 164.71875 Z M 313.039062 166.074219 C 314.144531 168.847656 314.714844 171.722656 314.75 174.707031 C 314.785156 177.691406 314.285156 180.582031 313.246094 183.382812 L 303.976562 197.796875 L 296.59375 193.386719 C 296.257812 193.183594 295.894531 193.097656 295.5 193.121094 C 295.109375 193.148438 294.761719 193.28125 294.453125 193.523438 L 293.566406 194.222656 C 293.246094 194.359375 292.980469 194.566406 292.777344 194.851562 L 281.082031 204.089844 L 267.976562 197.945312 C 267.683594 197.808594 267.375 197.75 267.050781 197.773438 C 266.726562 197.792969 266.429688 197.890625 266.15625 198.066406 L 252.027344 207.082031 L 240.433594 198.816406 C 240.355469 198.773438 240.277344 198.734375 240.195312 198.699219 C 240.132812 198.660156 240.066406 198.628906 239.996094 198.601562 C 239.785156 198.515625 239.570312 198.472656 239.34375 198.46875 L 239.324219 198.46875 C 239.101562 198.476562 238.882812 198.519531 238.675781 198.601562 C 238.605469 198.628906 238.539062 198.664062 238.476562 198.699219 C 238.394531 198.734375 238.3125 198.773438 238.238281 198.820312 L 226.644531 207.082031 L 212.511719 198.066406 C 212.242188 197.890625 211.941406 197.792969 211.621094 197.773438 C 211.296875 197.75 210.988281 197.808594 210.695312 197.949219 L 197.589844 204.089844 L 184.21875 193.523438 C 183.910156 193.28125 183.5625 193.148438 183.167969 193.121094 C 182.777344 193.097656 182.414062 193.183594 182.078125 193.386719 L 174.695312 197.796875 L 169.007812 188.957031 C 180.464844 190.789062 191.992188 191.695312 203.59375 191.679688 C 219.035156 191.734375 234.28125 190.046875 249.335938 186.613281 C 254.386719 185.40625 259.324219 183.847656 264.152344 181.933594 C 268.976562 180.019531 273.644531 177.769531 278.148438 175.1875 C 282.652344 172.605469 286.953125 169.71875 291.042969 166.519531 C 295.132812 163.320312 298.976562 159.847656 302.570312 156.101562 C 302.808594 155.9375 302.996094 155.730469 303.136719 155.476562 C 303.257812 155.34375 303.414062 155.179688 303.515625 155.0625 C 305.730469 156.242188 307.660156 157.785156 309.304688 159.683594 C 310.945312 161.582031 312.191406 163.710938 313.039062 166.074219 Z M 258.296875 282.59375 L 267.820312 202.046875 L 280.535156 208.007812 C 280.859375 208.160156 281.199219 208.214844 281.554688 208.175781 C 281.910156 208.132812 282.226562 208 282.507812 207.78125 L 291.226562 200.890625 L 272.597656 280.984375 C 268.414062 281.640625 263.644531 282.195312 258.296875 282.59375 Z M 204.972656 280.804688 L 186.148438 199.867188 L 196.164062 207.78125 C 196.441406 208.003906 196.761719 208.132812 197.117188 208.175781 C 197.472656 208.214844 197.8125 208.160156 198.136719 208.007812 L 209.847656 202.519531 L 219.304688 282.511719 C 213.921875 282.082031 209.140625 281.492188 204.972656 280.804688 Z M 213.75 203.339844 L 225.683594 210.953125 C 226.011719 211.160156 226.363281 211.261719 226.75 211.25 C 227.136719 211.242188 227.484375 211.125 227.796875 210.902344 L 237.445312 204.023438 L 237.445312 283.257812 C 232.320312 283.222656 227.554688 283.066406 223.144531 282.785156 Z M 241.226562 204.023438 L 250.871094 210.902344 C 251.1875 211.125 251.535156 211.242188 251.921875 211.25 C 252.304688 211.261719 252.660156 211.160156 252.984375 210.953125 L 263.773438 204.070312 L 254.460938 282.847656 C 250.355469 283.082031 245.945312 283.21875 241.226562 283.257812 Z M 206.109375 117.710938 C 204.191406 117.414062 202.359375 116.847656 200.613281 116.003906 C 198.867188 115.160156 197.28125 114.078125 195.855469 112.757812 C 194.972656 111.960938 194.179688 111.082031 193.476562 110.121094 C 192.773438 109.160156 192.171875 108.136719 191.675781 107.054688 C 191.175781 105.972656 190.792969 104.851562 190.527344 103.691406 C 190.257812 102.53125 190.105469 101.355469 190.078125 100.164062 C 190.035156 98.84375 190.257812 97.570312 190.742188 96.339844 C 191.230469 95.113281 191.941406 94.03125 192.878906 93.101562 C 194.070312 91.824219 195.476562 90.859375 197.09375 90.207031 C 198.714844 89.550781 200.394531 89.269531 202.136719 89.359375 C 204.136719 89.417969 206.066406 89.082031 207.925781 88.355469 C 209.832031 87.613281 211.511719 86.523438 212.96875 85.089844 C 214.179688 83.832031 215.601562 82.890625 217.230469 82.261719 C 218.859375 81.632812 220.542969 81.378906 222.285156 81.5 L 222.347656 81.5 C 223.625 81.546875 224.84375 81.84375 226 82.382812 C 227.15625 82.921875 228.164062 83.664062 229.023438 84.609375 C 230.519531 86.242188 231.660156 88.097656 232.441406 90.167969 C 233.222656 92.242188 233.59375 94.386719 233.546875 96.601562 C 228.347656 102.628906 217.125 110.820312 206.253906 117.769531 C 206.203125 117.753906 206.164062 117.71875 206.109375 117.710938 Z M 194.285156 129.355469 C 207.09375 122.238281 228.648438 108.304688 236.761719 98.667969 L 236.777344 98.644531 C 237.457031 97.855469 238.074219 97.023438 238.636719 96.144531 C 242.371094 89.949219 245.71875 83.550781 248.683594 76.949219 C 254.363281 83.472656 264.117188 96.484375 262.761719 103.601562 C 262.75 103.726562 262.753906 103.851562 262.769531 103.976562 C 259.816406 107.925781 251.648438 117.160156 233.371094 128.257812 C 222.542969 134.835938 208.039062 139.03125 196.386719 142.398438 C 191.726562 143.75 187.652344 144.929688 184.332031 146.09375 C 184.847656 142.003906 186.8125 133.507812 194.285156 129.355469 Z M 178.707031 153.074219 C 180.585938 150.90625 188.769531 148.539062 197.4375 146.03125 C 209.304688 142.597656 224.074219 138.324219 235.332031 131.488281 C 256.226562 118.800781 264.402344 108.390625 266.730469 104.933594 C 267.765625 105.257812 268.746094 105.703125 269.671875 106.265625 C 270.597656 106.832031 271.441406 107.5 272.203125 108.273438 C 272.964844 109.042969 273.625 109.898438 274.175781 110.828125 C 274.730469 111.761719 275.164062 112.75 275.472656 113.789062 C 276.46875 116.230469 277.027344 118.769531 277.152344 121.402344 C 277.277344 124.035156 276.957031 126.617188 276.199219 129.140625 C 276.191406 129.15625 276.195312 129.171875 276.191406 129.1875 C 276.183594 129.203125 276.171875 129.210938 276.167969 129.226562 C 276.128906 129.316406 272.066406 138.382812 235.136719 154.3125 C 225.519531 158.519531 215.527344 161.457031 205.164062 163.128906 C 204.8125 162.589844 204.394531 162.109375 203.910156 161.6875 C 203.429688 161.261719 202.898438 160.914062 202.316406 160.632812 C 201.738281 160.355469 201.132812 160.160156 200.5 160.050781 C 199.867188 159.9375 199.230469 159.914062 198.589844 159.976562 C 197.949219 160.039062 197.332031 160.1875 196.730469 160.417969 C 196.132812 160.652344 195.574219 160.960938 195.0625 161.34375 C 194.546875 161.730469 194.09375 162.175781 193.703125 162.683594 C 193.308594 163.195312 192.992188 163.746094 192.753906 164.34375 C 187.609375 164.550781 183.257812 164.394531 179.742188 164.257812 C 178.542969 164.210938 177.46875 164.167969 176.476562 164.148438 C 176.027344 161.785156 175.558594 156.703125 178.707031 153.074219 Z M 202.550781 166.996094 C 202.550781 167.429688 202.46875 167.847656 202.300781 168.246094 C 202.136719 168.648438 201.898438 169 201.59375 169.308594 C 201.285156 169.617188 200.929688 169.851562 200.53125 170.019531 C 200.128906 170.183594 199.710938 170.269531 199.277344 170.269531 C 198.84375 170.269531 198.425781 170.183594 198.023438 170.019531 C 197.625 169.851562 197.269531 169.617188 196.960938 169.308594 C 196.65625 169.003906 196.417969 168.648438 196.253906 168.246094 C 196.085938 167.847656 196.003906 167.429688 196.003906 166.996094 C 196.003906 166.558594 196.085938 166.144531 196.253906 165.742188 C 196.417969 165.339844 196.65625 164.988281 196.964844 164.679688 C 197.269531 164.375 197.625 164.136719 198.023438 163.96875 C 198.425781 163.804688 198.84375 163.722656 199.277344 163.722656 C 199.710938 163.722656 200.128906 163.804688 200.53125 163.972656 C 200.929688 164.136719 201.285156 164.375 201.589844 164.679688 C 201.898438 164.988281 202.132812 165.339844 202.300781 165.742188 C 202.464844 166.144531 202.550781 166.558594 202.550781 166.996094 Z M 171.402344 168.363281 C 172.363281 167.746094 175.875 167.886719 179.59375 168.035156 C 183.046875 168.167969 187.304688 168.316406 192.339844 168.136719 C 192.410156 168.570312 192.519531 168.992188 192.671875 169.40625 C 192.820312 169.816406 193.003906 170.210938 193.230469 170.589844 C 193.453125 170.96875 193.707031 171.320312 193.996094 171.652344 C 194.289062 171.980469 194.605469 172.28125 194.949219 172.550781 C 195.296875 172.820312 195.664062 173.058594 196.050781 173.257812 C 196.441406 173.460938 196.847656 173.625 197.265625 173.75 C 197.6875 173.875 198.117188 173.960938 198.550781 174.007812 C 198.988281 174.054688 199.425781 174.058594 199.863281 174.023438 C 200.300781 173.988281 200.730469 173.914062 201.152344 173.796875 C 201.574219 173.679688 201.984375 173.527344 202.378906 173.332031 C 202.773438 173.140625 203.144531 172.914062 203.496094 172.652344 C 203.847656 172.390625 204.171875 172.097656 204.46875 171.773438 C 204.769531 171.449219 205.03125 171.101562 205.265625 170.730469 C 205.496094 170.359375 205.691406 169.96875 205.851562 169.558594 C 206.011719 169.152344 206.128906 168.730469 206.210938 168.300781 C 206.289062 167.867188 206.332031 167.433594 206.328125 166.996094 C 206.328125 166.917969 206.308594 166.847656 206.308594 166.769531 C 216.789062 165.03125 226.894531 162.035156 236.632812 157.785156 C 268.257812 144.140625 276.753906 135.25 278.992188 131.878906 C 281.949219 132.265625 289.953125 133.847656 294.507812 139.941406 C 296.046875 141.921875 297.25 144.085938 298.117188 146.433594 C 298.988281 148.785156 299.480469 151.210938 299.597656 153.710938 C 296.125 157.28125 292.421875 160.589844 288.484375 163.640625 C 284.550781 166.691406 280.417969 169.449219 276.097656 171.921875 C 271.773438 174.394531 267.296875 176.550781 262.671875 178.394531 C 258.046875 180.238281 253.316406 181.75 248.476562 182.933594 C 234.960938 185.925781 221.277344 187.5625 207.4375 187.847656 C 193.59375 188.136719 179.859375 187.0625 166.226562 184.632812 L 165.566406 183.605469 C 164.800781 179.214844 166.074219 171.789062 171.402344 168.363281 Z M 184.128906 273.007812 C 184.128906 272.878906 184.117188 272.75 184.089844 272.625 L 167.683594 193.878906 L 172.507812 201.378906 C 172.640625 201.585938 172.804688 201.757812 173.007812 201.898438 C 173.207031 202.042969 173.425781 202.140625 173.664062 202.195312 C 173.902344 202.25 174.144531 202.261719 174.386719 202.222656 C 174.628906 202.1875 174.855469 202.105469 175.066406 201.980469 L 181.820312 197.941406 L 200.921875 280.070312 C 189.828125 277.855469 184.128906 274.96875 184.128906 273.007812 Z M 294.585938 272.605469 C 294.554688 272.738281 294.542969 272.871094 294.542969 273.007812 C 294.542969 275.035156 288.46875 278.050781 276.640625 280.289062 L 295.921875 197.386719 L 303.605469 201.980469 C 303.816406 202.105469 304.042969 202.1875 304.285156 202.222656 C 304.527344 202.261719 304.765625 202.253906 305.003906 202.195312 C 305.246094 202.140625 305.464844 202.042969 305.664062 201.902344 C 305.863281 201.757812 306.03125 201.585938 306.164062 201.378906 L 311.53125 193.035156 C 308.257812 209.679688 300.332031 246.453125 294.585938 272.605469 Z M 294.585938 272.605469 " fill-opacity="1" fill-rule="nonzero"/></g><path fill="#fffaf9" d="M 247.015625 111.804688 C 247.480469 111.804688 247.9375 111.757812 248.390625 111.667969 C 248.84375 111.578125 249.285156 111.445312 249.714844 111.265625 C 250.140625 111.089844 250.546875 110.871094 250.933594 110.613281 C 251.320312 110.359375 251.675781 110.066406 252.003906 109.738281 C 252.328125 109.410156 252.621094 109.054688 252.878906 108.667969 C 253.136719 108.285156 253.355469 107.878906 253.53125 107.449219 C 253.707031 107.023438 253.84375 106.582031 253.933594 106.128906 C 254.023438 105.671875 254.066406 105.214844 254.066406 104.75 C 254.066406 104.289062 254.023438 103.828125 253.933594 103.375 C 253.84375 102.921875 253.707031 102.480469 253.53125 102.050781 C 253.355469 101.625 253.136719 101.21875 252.878906 100.832031 C 252.621094 100.449219 252.328125 100.089844 252.003906 99.765625 C 251.675781 99.4375 251.320312 99.144531 250.933594 98.886719 C 250.550781 98.628906 250.140625 98.414062 249.714844 98.234375 C 249.285156 98.058594 248.847656 97.925781 248.390625 97.835938 C 247.9375 97.742188 247.480469 97.699219 247.015625 97.699219 C 246.550781 97.699219 246.09375 97.742188 245.640625 97.835938 C 245.1875 97.925781 244.746094 98.058594 244.316406 98.234375 C 243.890625 98.414062 243.484375 98.628906 243.097656 98.886719 C 242.710938 99.144531 242.355469 99.4375 242.027344 99.765625 C 241.703125 100.09375 241.410156 100.449219 241.152344 100.832031 C 240.894531 101.21875 240.675781 101.625 240.5 102.054688 C 240.324219 102.480469 240.1875 102.921875 240.097656 103.375 C 240.007812 103.828125 239.964844 104.289062 239.964844 104.75 C 239.964844 105.214844 240.011719 105.671875 240.101562 106.125 C 240.191406 106.582031 240.324219 107.019531 240.503906 107.449219 C 240.679688 107.875 240.898438 108.28125 241.15625 108.667969 C 241.410156 109.050781 241.703125 109.410156 242.03125 109.734375 C 242.359375 110.0625 242.714844 110.355469 243.101562 110.613281 C 243.484375 110.871094 243.890625 111.085938 244.316406 111.265625 C 244.746094 111.441406 245.1875 111.574219 245.640625 111.667969 C 246.09375 111.757812 246.550781 111.804688 247.015625 111.804688 Z M 247.015625 101.476562 C 247.449219 101.476562 247.867188 101.5625 248.269531 101.726562 C 248.667969 101.894531 249.023438 102.128906 249.332031 102.4375 C 249.636719 102.742188 249.875 103.097656 250.039062 103.5 C 250.207031 103.898438 250.289062 104.316406 250.289062 104.75 C 250.289062 105.183594 250.207031 105.601562 250.039062 106.003906 C 249.875 106.402344 249.636719 106.757812 249.332031 107.066406 C 249.023438 107.371094 248.667969 107.609375 248.269531 107.773438 C 247.867188 107.941406 247.449219 108.023438 247.015625 108.023438 C 246.582031 108.023438 246.164062 107.941406 245.765625 107.773438 C 245.363281 107.609375 245.007812 107.371094 244.703125 107.066406 C 244.394531 106.757812 244.160156 106.40625 243.992188 106.003906 C 243.824219 105.601562 243.742188 105.1875 243.742188 104.75 C 243.742188 104.316406 243.828125 103.902344 243.992188 103.5 C 244.160156 103.097656 244.394531 102.746094 244.703125 102.4375 C 245.007812 102.132812 245.363281 101.894531 245.765625 101.730469 C 246.164062 101.5625 246.582031 101.480469 247.015625 101.476562 Z M 247.015625 101.476562 " fill-opacity="1" fill-rule="nonzero"/><path fill="#fffaf9" d="M 279.035156 162.453125 C 279.5 162.453125 279.957031 162.410156 280.414062 162.320312 C 280.867188 162.230469 281.308594 162.09375 281.734375 161.917969 C 282.164062 161.742188 282.570312 161.523438 282.953125 161.265625 C 283.339844 161.007812 283.695312 160.714844 284.023438 160.390625 C 284.351562 160.0625 284.644531 159.707031 284.898438 159.320312 C 285.15625 158.933594 285.375 158.527344 285.550781 158.101562 C 285.730469 157.671875 285.863281 157.230469 285.953125 156.777344 C 286.042969 156.324219 286.089844 155.863281 286.089844 155.402344 C 286.089844 154.9375 286.042969 154.480469 285.953125 154.027344 C 285.863281 153.570312 285.730469 153.132812 285.550781 152.703125 C 285.375 152.277344 285.15625 151.871094 284.898438 151.484375 C 284.644531 151.097656 284.351562 150.742188 284.023438 150.414062 C 283.695312 150.089844 283.339844 149.796875 282.953125 149.539062 C 282.570312 149.28125 282.164062 149.0625 281.734375 148.886719 C 281.308594 148.710938 280.867188 148.574219 280.410156 148.484375 C 279.957031 148.394531 279.5 148.351562 279.035156 148.351562 C 278.574219 148.351562 278.113281 148.394531 277.660156 148.484375 C 277.207031 148.578125 276.765625 148.710938 276.335938 148.886719 C 275.910156 149.066406 275.503906 149.28125 275.117188 149.539062 C 274.734375 149.796875 274.375 150.089844 274.050781 150.417969 C 273.722656 150.742188 273.429688 151.101562 273.171875 151.484375 C 272.914062 151.871094 272.699219 152.277344 272.519531 152.703125 C 272.34375 153.132812 272.210938 153.574219 272.121094 154.027344 C 272.027344 154.480469 271.984375 154.941406 271.984375 155.402344 C 271.984375 155.867188 272.03125 156.324219 272.121094 156.777344 C 272.210938 157.230469 272.347656 157.671875 272.523438 158.101562 C 272.699219 158.527344 272.917969 158.933594 273.175781 159.320312 C 273.433594 159.703125 273.726562 160.058594 274.050781 160.386719 C 274.378906 160.714844 274.734375 161.007812 275.121094 161.265625 C 275.503906 161.519531 275.910156 161.738281 276.339844 161.914062 C 276.765625 162.09375 277.207031 162.226562 277.660156 162.316406 C 278.117188 162.410156 278.574219 162.453125 279.035156 162.453125 Z M 279.035156 152.128906 C 279.472656 152.128906 279.886719 152.210938 280.289062 152.378906 C 280.691406 152.542969 281.042969 152.78125 281.351562 153.089844 C 281.65625 153.394531 281.894531 153.75 282.058594 154.148438 C 282.226562 154.550781 282.308594 154.96875 282.308594 155.402344 C 282.308594 155.835938 282.226562 156.253906 282.058594 156.65625 C 281.894531 157.054688 281.65625 157.410156 281.351562 157.71875 C 281.042969 158.023438 280.691406 158.261719 280.289062 158.425781 C 279.886719 158.59375 279.46875 158.675781 279.035156 158.675781 C 278.601562 158.675781 278.183594 158.59375 277.785156 158.425781 C 277.382812 158.261719 277.027344 158.023438 276.722656 157.71875 C 276.414062 157.410156 276.179688 157.054688 276.011719 156.65625 C 275.847656 156.253906 275.761719 155.835938 275.761719 155.402344 C 275.765625 154.96875 275.847656 154.550781 276.011719 154.152344 C 276.179688 153.75 276.417969 153.398438 276.722656 153.089844 C 277.03125 152.78125 277.382812 152.546875 277.785156 152.378906 C 278.183594 152.214844 278.601562 152.128906 279.035156 152.128906 Z M 279.035156 152.128906 " fill-opacity="1" fill-rule="nonzero"/><path fill="#fffaf9" d="M 235.695312 149.476562 C 236.15625 149.476562 236.617188 149.433594 237.070312 149.34375 C 237.523438 149.253906 237.964844 149.117188 238.394531 148.941406 C 238.820312 148.765625 239.226562 148.546875 239.613281 148.289062 C 239.996094 148.03125 240.351562 147.738281 240.679688 147.414062 C 241.007812 147.085938 241.300781 146.730469 241.558594 146.34375 C 241.816406 145.957031 242.03125 145.550781 242.210938 145.125 C 242.386719 144.695312 242.519531 144.253906 242.609375 143.800781 C 242.703125 143.347656 242.746094 142.886719 242.746094 142.425781 C 242.746094 141.960938 242.703125 141.503906 242.609375 141.050781 C 242.519531 140.59375 242.386719 140.15625 242.210938 139.726562 C 242.03125 139.300781 241.816406 138.890625 241.558594 138.507812 C 241.300781 138.121094 241.007812 137.765625 240.679688 137.4375 C 240.351562 137.109375 239.996094 136.820312 239.613281 136.5625 C 239.226562 136.304688 238.820312 136.085938 238.394531 135.910156 C 237.964844 135.734375 237.523438 135.597656 237.070312 135.507812 C 236.617188 135.417969 236.15625 135.375 235.695312 135.375 C 235.230469 135.375 234.773438 135.417969 234.316406 135.507812 C 233.863281 135.597656 233.421875 135.734375 232.996094 135.910156 C 232.566406 136.085938 232.160156 136.304688 231.777344 136.5625 C 231.390625 136.820312 231.035156 137.113281 230.707031 137.4375 C 230.378906 137.765625 230.085938 138.121094 229.832031 138.507812 C 229.574219 138.894531 229.355469 139.300781 229.179688 139.726562 C 229 140.15625 228.867188 140.597656 228.777344 141.050781 C 228.6875 141.503906 228.640625 141.964844 228.640625 142.425781 C 228.640625 142.890625 228.6875 143.347656 228.777344 143.800781 C 228.871094 144.253906 229.003906 144.695312 229.179688 145.125 C 229.359375 145.550781 229.574219 145.957031 229.832031 146.339844 C 230.089844 146.726562 230.382812 147.082031 230.710938 147.410156 C 231.039062 147.738281 231.394531 148.03125 231.777344 148.285156 C 232.164062 148.542969 232.570312 148.761719 232.996094 148.9375 C 233.425781 149.117188 233.863281 149.25 234.320312 149.339844 C 234.773438 149.429688 235.230469 149.476562 235.695312 149.476562 Z M 235.695312 139.152344 C 236.128906 139.152344 236.546875 139.234375 236.945312 139.402344 C 237.347656 139.566406 237.703125 139.804688 238.007812 140.109375 C 238.316406 140.417969 238.550781 140.773438 238.71875 141.171875 C 238.882812 141.574219 238.96875 141.992188 238.96875 142.425781 C 238.96875 142.859375 238.882812 143.277344 238.71875 143.675781 C 238.550781 144.078125 238.316406 144.433594 238.007812 144.738281 C 237.703125 145.046875 237.347656 145.28125 236.945312 145.449219 C 236.546875 145.617188 236.128906 145.699219 235.695312 145.699219 C 235.261719 145.699219 234.84375 145.617188 234.441406 145.449219 C 234.042969 145.285156 233.6875 145.046875 233.378906 144.742188 C 233.074219 144.433594 232.835938 144.078125 232.671875 143.679688 C 232.503906 143.277344 232.421875 142.859375 232.421875 142.425781 C 232.421875 141.992188 232.503906 141.574219 232.671875 141.175781 C 232.835938 140.773438 233.074219 140.417969 233.378906 140.113281 C 233.6875 139.804688 234.042969 139.570312 234.441406 139.402344 C 234.84375 139.238281 235.261719 139.152344 235.695312 139.152344 Z M 235.695312 139.152344 " fill-opacity="1" fill-rule="nonzero"/><path stroke-linecap="round" transform="matrix(0.748614, 0, 0, 0.748614, 143.48186, 382.067922)" fill="none" stroke-linejoin="miter" d="M 28.498741 28.498574 L 229.359609 28.498574 " stroke="#fffaf9" stroke-width="57" stroke-opacity="1" stroke-miterlimit="4"/><path stroke-linecap="round" transform="matrix(0.748614, 0, 0, 0.748614, 197.383286, 458.900187)" fill="none" stroke-linejoin="miter" d="M 21.497439 21.500953 L 92.357589 21.500953 " stroke="#fffaf9" stroke-width="43" stroke-opacity="1" stroke-miterlimit="4"/></svg>